{"scene":0,"scenes":[{"nodes":[0]}],"asset":{"version":"2.0","generator":"https://github.com/mikedh/trimesh"},"accessors":[{"componentType":5125,"type":"SCALAR","bufferView":0,"count":132,"max":[23],"min":[0]},{"componentType":5126,"type":"VEC3","byteOffset":0,"bufferView":1,"count":24,"max":[0.2199999988079071,0.04500000178813934,0.5799999833106995],"min":[-0.2199999988079071,-0.04500000178813934,-0.5799999833106995]},{"componentType":5126,"count":24,"type":"VEC3","byteOffset":0,"bufferView":2,"max":[0.6998487710952759,0.6998487710952759,0.6998487710952759],"min":[-0.6998487710952759,-0.6998487710952759,-0.6998487710952759]},{"componentType":5125,"type":"SCALAR","bufferView":3,"count":36,"max":[7],"min":[0]},{"componentType":5126,"type":"VEC3","byteOffset":0,"bufferView":4,"count":8,"max":[0.20000000298023224,0.05000000074505806,-0.5099999904632568],"min":[-0.20000000298023224,-0.029999999329447746,-0.7900000214576721]},{"componentType":5126,"count":8,"type":"VEC3","byteOffset":0,"bufferView":5,"max":[0.660703182220459,0.7321909666061401,0.5773502588272095],"min":[-0.660703182220459,-0.5773502588272095,-0.8208575248718262]},{"componentType":5126,"type":"VEC3","byteOffset":0,"bufferView":6,"count":8,"max":[0.20000000298023224,0.05000000074505806,0.7900000214576721],"min":[-0.20000000298023224,-0.029999999329447746,0.5099999904632568]},{"componentType":5125,"type":"SCALAR","bufferView":7,"count":36,"max":[7],"min":[0]},{"componentType":5126,"type":"VEC3","byteOffset":0,"bufferView":8,"count":8,"max":[0.17000000178813934,-0.03999999910593033,-0.3199999928474426],"min":[-0.17000000178813934,-0.09000000357627869,-0.5199999809265137]},{"componentType":5126,"count":8,"type":"VEC3","byteOffset":0,"bufferView":9,"max":[0.5773502588272095,0.5773502588272095,0.5773502588272095],"min":[-0.5773502588272095,-0.5773502588272095,-0.5773502588272095]},{"componentType":5126,"type":"VEC3","byteOffset":0,"bufferView":10,"count":8,"max":[0.17000000178813934,-0.03999999910593033,0.10000000149011612],"min":[-0.17000000178813934,-0.09000000357627869,-0.10000000149011612]},{"componentType":5126,"type":"VEC3","byteOffset":0,"bufferView":11,"count":8,"max":[0.17000000178813934,-0.03999999910593033,0.5199999809265137],"min":[-0.17000000178813934,-0.09000000357627869,0.3199999928474426]},{"componentType":5126,"type":"VEC3","byteOffset":0,"bufferView":12,"count":8,"max":[-0.19499999284744263,0.02500000037252903,0.5199999809265137],"min":[-0.23499999940395355,-0.02500000037252903,-0.5199999809265137]},{"componentType":5126,"type":"VEC3","byteOffset":0,"bufferView":13,"count":8,"max":[0.23499999940395355,0.02500000037252903,0.5199999809265137],"min":[0.19499999284744263,-0.02500000037252903,-0.5199999809265137]},{"componentType":5125,"type":"SCALAR","bufferView":14,"count":24,"max":[5],"min":[0]},{"componentType":5126,"type":"VEC3","byteOffset":0,"bufferView":15,"count":6,"max":[0.10999999940395355,0.12999999523162842,-0.3400000035762787],"min":[-0.10999999940395355,-0.009999999776482582,-0.6600000262260437]},{"componentType":5126,"count":6,"type":"VEC3","byteOffset":0,"bufferView":16,"max":[1.0,1.0,1.0],"min":[-1.0,-1.0,-1.0]}],"meshes":[{"name":"deck","extras":{"processed":true},"primitives":[{"attributes":{"POSITION":1,"NORMAL":2},"indices":0,"mode":4,"material":0}]},{"name":"nose","extras":{"processed":true},"primitives":[{"attributes":{"POSITION":4,"NORMAL":5},"indices":3,"mode":4,"material":0}]},{"name":"tail","extras":{"processed":true},"primitives":[{"attributes":{"POSITION":6,"NORMAL":5},"indices":3,"mode":4,"material":0}]},{"name":"thruster_-0.42","extras":{"shape":"box","extents":[0.34,0.05,0.2]},"primitives":[{"attributes":{"POSITION":8,"NORMAL":9},"indices":7,"mode":4,"material":1}]},{"name":"thruster_0.0","extras":{"shape":"box","extents":[0.34,0.05,0.2]},"primitives":[{"attributes":{"POSITION":10,"NORMAL":9},"indices":7,"mode":4,"material":1}]},{"name":"thruster_0.42","extras":{"shape":"box","extents":[0.34,0.05,0.2]},"primitives":[{"attributes":{"POSITION":11,"NORMAL":9},"indices":7,"mode":4,"material":1}]},{"name":"rail_-1","extras":{"shape":"box","extents":[0.04,0.05,1.04]},"primitives":[{"attributes":{"POSITION":12,"NORMAL":9},"indices":7,"mode":4,"material":1}]},{"name":"rail_1","extras":{"shape":"box","extents":[0.04,0.05,1.04]},"primitives":[{"attributes":{"POSITION":13,"NORMAL":9},"indices":7,"mode":4,"material":1}]},{"name":"prism","extras":{"processed":true},"primitives":[{"attributes":{"POSITION":15,"NORMAL":16},"indices":14,"mode":4,"material":2}]}],"materials":[{"pbrMetallicRoughness":{"baseColorFactor":[0.10196078431372549,0.0196078431372549,0.2,1.0],"roughnessFactor":0.3,"metallicFactor":0.0},"emissiveFactor":[0.034999999999999996,0.006999999999999999,0.06999999999999999],"name":"MAT_Dark_Void","alphaMode":"OPAQUE","doubleSided":false},{"pbrMetallicRoughness":{"baseColorFactor":[0.5490196078431373,0.34901960784313724,1.0,1.0],"roughnessFactor":0.35,"metallicFactor":0.0},"emissiveFactor":[0.55,0.35,1.0],"name":"MAT_Neon_Lilac","alphaMode":"OPAQUE","doubleSided":false},{"pbrMetallicRoughness":{"baseColorFactor":[0.9215686274509803,0.9607843137254902,1.0,1.0],"roughnessFactor":0.3,"metallicFactor":0.0},"emissiveFactor":[0.92,0.96,1.0],"name":"MAT_Neon_White","alphaMode":"OPAQUE","doubleSided":false}],"nodes":[{"name":"world","children":[1,2,3,4,5,6,7,8,9]},{"name":"deck","mesh":0},{"name":"nose","mesh":1},{"name":"tail","mesh":2},{"name":"thruster_-0.42","mesh":3},{"name":"thruster_0.0","mesh":4},{"name":"thruster_0.42","mesh":5},{"name":"rail_-1","mesh":6},{"name":"rail_1","mesh":7},{"name":"prism","mesh":8}],"buffers":[{"uri":"gltf_buffer.bin","byteLength":2496}],"bufferViews":[{"buffer":0,"byteOffset":0,"byteLength":528},{"buffer":0,"byteOffset":528,"byteLength":288},{"buffer":0,"byteOffset":816,"byteLength":288},{"buffer":0,"byteOffset":1104,"byteLength":144},{"buffer":0,"byteOffset":1248,"byteLength":96},{"buffer":0,"byteOffset":1344,"byteLength":96},{"buffer":0,"byteOffset":1440,"byteLength":96},{"buffer":0,"byteOffset":1536,"byteLength":144},{"buffer":0,"byteOffset":1680,"byteLength":96},{"buffer":0,"byteOffset":1776,"byteLength":96},{"buffer":0,"byteOffset":1872,"byteLength":96},{"buffer":0,"byteOffset":1968,"byteLength":96},{"buffer":0,"byteOffset":2064,"byteLength":96},{"buffer":0,"byteOffset":2160,"byteLength":96},{"buffer":0,"byteOffset":2256,"byteLength":96},{"buffer":0,"byteOffset":2352,"byteLength":72},{"buffer":0,"byteOffset":2424,"byteLength":72}]}