{"scene":0,"scenes":[{"nodes":[0]}],"asset":{"version":"2.0","generator":"https://github.com/mikedh/trimesh"},"accessors":[{"componentType":5125,"type":"SCALAR","bufferView":0,"count":468,"max":[79],"min":[0]},{"componentType":5126,"type":"VEC3","byteOffset":0,"bufferView":1,"count":80,"max":[0.3400000035762787,0.05999999865889549,0.3400000035762787],"min":[-0.36000001430511475,-2.0816681711721685e-17,-0.36000001430511475]},{"componentType":5126,"count":80,"type":"VEC3","byteOffset":0,"bufferView":2,"max":[0.8081117272377014,0.9913069605827332,0.8081117272377014],"min":[-0.8081117272377014,-0.9913069605827332,-0.8081117272377014]},{"componentType":5126,"type":"VEC3","byteOffset":0,"bufferView":3,"count":80,"max":[0.360971599817276,0.12200000137090683,0.3518044948577881],"min":[-0.33892178535461426,0.06199999898672104,-0.3480888903141022]},{"componentType":5126,"count":80,"type":"VEC3","byteOffset":0,"bufferView":4,"max":[0.8079886436462402,0.9913069605827332,0.8079886436462402],"min":[-0.8079886436462402,-0.9913069605827332,-0.8079886436462402]},{"componentType":5126,"type":"VEC3","byteOffset":0,"bufferView":5,"count":80,"max":[0.3526802659034729,0.18400000035762787,0.37195947766304016],"min":[-0.346893310546875,0.12399999797344208,-0.32761409878730774]},{"componentType":5126,"count":80,"type":"VEC3","byteOffset":0,"bufferView":6,"max":[0.8076194524765015,0.9913069605827332,0.8076194524765015],"min":[-0.8076194524765015,-0.9913069605827332,-0.8076194524765015]},{"componentType":5126,"type":"VEC3","byteOffset":0,"bufferView":7,"count":80,"max":[0.3480420708656311,0.2460000067949295,0.33545568585395813],"min":[-0.35099858045578003,0.1860000044107437,-0.3635849952697754]},{"componentType":5126,"count":80,"type":"VEC3","byteOffset":0,"bufferView":8,"max":[0.8070042133331299,0.9913069605827332,0.8070042133331299],"min":[-0.8070042133331299,-0.9913069605827332,-0.8070042133331299]}],"meshes":[{"name":"coin_0","extras":{"processed":true},"primitives":[{"attributes":{"POSITION":1,"NORMAL":2},"indices":0,"mode":4,"material":0}]},{"name":"coin_1","extras":{"processed":true},"primitives":[{"attributes":{"POSITION":3,"NORMAL":4},"indices":0,"mode":4,"material":0}]},{"name":"coin_2","extras":{"processed":true},"primitives":[{"attributes":{"POSITION":5,"NORMAL":6},"indices":0,"mode":4,"material":0}]},{"name":"coin_3","extras":{"processed":true},"primitives":[{"attributes":{"POSITION":7,"NORMAL":8},"indices":0,"mode":4,"material":0}]}],"materials":[{"pbrMetallicRoughness":{"baseColorFactor":[1.0,0.8196078431372549,0.25098039215686274,1.0],"roughnessFactor":0.25,"metallicFactor":0.85},"emissiveFactor":[1.0,0.82,0.25],"name":"MAT_Neon_Gold","alphaMode":"OPAQUE","doubleSided":false}],"nodes":[{"name":"world","children":[1,2,3,4]},{"name":"coin_0","mesh":0},{"name":"coin_1","mesh":1},{"name":"coin_2","mesh":2},{"name":"coin_3","mesh":3}],"buffers":[{"uri":"gltf_buffer.bin","byteLength":9552}],"bufferViews":[{"buffer":0,"byteOffset":0,"byteLength":1872},{"buffer":0,"byteOffset":1872,"byteLength":960},{"buffer":0,"byteOffset":2832,"byteLength":960},{"buffer":0,"byteOffset":3792,"byteLength":960},{"buffer":0,"byteOffset":4752,"byteLength":960},{"buffer":0,"byteOffset":5712,"byteLength":960},{"buffer":0,"byteOffset":6672,"byteLength":960},{"buffer":0,"byteOffset":7632,"byteLength":960},{"buffer":0,"byteOffset":8592,"byteLength":960}]}