{"scene":0,"scenes":[{"nodes":[0]}],"asset":{"version":"2.0","generator":"https://github.com/mikedh/trimesh"},"accessors":[{"componentType":5125,"type":"SCALAR","bufferView":0,"count":24,"max":[5],"min":[0]},{"componentType":5126,"type":"VEC3","byteOffset":0,"bufferView":1,"count":6,"max":[0.23000000417232513,0.3100000023841858,0.23000000417232513],"min":[-0.23000000417232513,-0.3100000023841858,-0.23000000417232513]},{"componentType":5126,"count":6,"type":"VEC3","byteOffset":0,"bufferView":2,"max":[1.0,1.0,1.0],"min":[-1.0,-1.0,-1.0]},{"componentType":5125,"type":"SCALAR","bufferView":3,"count":96,"max":[17],"min":[0]},{"componentType":5126,"type":"VEC3","byteOffset":0,"bufferView":4,"count":18,"max":[0.23999999463558197,0.08500000089406967,0.23999999463558197],"min":[-0.23999999463558197,0.014999999664723873,-0.23999999463558197]},{"componentType":5126,"count":18,"type":"VEC3","byteOffset":0,"bufferView":5,"max":[0.7763821482658386,1.0,0.7763821482658386],"min":[-0.7763821482658386,-1.0,-0.7763821482658386]},{"componentType":5126,"type":"VEC3","byteOffset":0,"bufferView":6,"count":6,"max":[0.10000000149011612,0.1599999964237213,0.10000000149011612],"min":[-0.10000000149011612,-0.11999999731779099,-0.10000000149011612]},{"componentType":5126,"count":6,"type":"VEC3","byteOffset":0,"bufferView":7,"max":[1.0,1.0,1.0],"min":[-1.0,-1.0,-1.0]}],"meshes":[{"name":"core","extras":{"processed":true},"primitives":[{"attributes":{"POSITION":1,"NORMAL":2},"indices":0,"mode":4,"material":0}]},{"name":"girdle","extras":{"shape":"cylinder","height":0.07,"radius":0.24,"processed":true},"primitives":[{"attributes":{"POSITION":4,"NORMAL":5},"indices":3,"mode":4,"material":1}]},{"name":"fire","extras":{"processed":true},"primitives":[{"attributes":{"POSITION":6,"NORMAL":7},"indices":0,"mode":4,"material":2}]}],"materials":[{"pbrMetallicRoughness":{"baseColorFactor":[0.34901960784313724,0.6,1.0,0.45098039215686275],"roughnessFactor":0.1,"metallicFactor":0.0},"emissiveFactor":[0.315,0.54,0.9],"name":"MAT_Glass_Tint","alphaMode":"BLEND","doubleSided":false},{"pbrMetallicRoughness":{"baseColorFactor":[0.34901960784313724,0.6,1.0,1.0],"roughnessFactor":0.3,"metallicFactor":0.0},"emissiveFactor":[0.35,0.6,1.0],"name":"MAT_Neon_Blue","alphaMode":"OPAQUE","doubleSided":false},{"pbrMetallicRoughness":{"baseColorFactor":[0.9215686274509803,0.9607843137254902,1.0,1.0],"roughnessFactor":0.3,"metallicFactor":0.0},"emissiveFactor":[0.92,0.96,1.0],"name":"MAT_Neon_White","alphaMode":"OPAQUE","doubleSided":false}],"nodes":[{"name":"world","children":[1,2,3]},{"name":"core","mesh":0},{"name":"girdle","mesh":1},{"name":"fire","mesh":2}],"buffers":[{"uri":"gltf_buffer.bin","byteLength":1200}],"bufferViews":[{"buffer":0,"byteOffset":0,"byteLength":96},{"buffer":0,"byteOffset":96,"byteLength":72},{"buffer":0,"byteOffset":168,"byteLength":72},{"buffer":0,"byteOffset":240,"byteLength":384},{"buffer":0,"byteOffset":624,"byteLength":216},{"buffer":0,"byteOffset":840,"byteLength":216},{"buffer":0,"byteOffset":1056,"byteLength":72},{"buffer":0,"byteOffset":1128,"byteLength":72}]}