{"scene":0,"scenes":[{"nodes":[0]}],"asset":{"version":"2.0","generator":"https://github.com/mikedh/trimesh"},"accessors":[{"componentType":5125,"type":"SCALAR","bufferView":0,"count":96,"max":[17],"min":[0]},{"componentType":5126,"type":"VEC3","byteOffset":0,"bufferView":1,"count":18,"max":[0.30000001192092896,0.10000000149011612,0.30000001192092896],"min":[-0.30000001192092896,-2.0816681711721685e-17,-0.30000001192092896]},{"componentType":5126,"count":18,"type":"VEC3","byteOffset":0,"bufferView":2,"max":[0.7763821482658386,1.0,0.7763821482658386],"min":[-0.7763821482658386,-1.0,-0.7763821482658386]},{"componentType":5125,"type":"SCALAR","bufferView":3,"count":18,"max":[4],"min":[0]},{"componentType":5126,"type":"VEC3","byteOffset":0,"bufferView":4,"count":5,"max":[0.3499999940395355,0.3400000035762787,0.07999999821186066],"min":[0.1899999976158142,0.10000000149011612,-0.07999999821186066]},{"componentType":5126,"count":5,"type":"VEC3","byteOffset":0,"bufferView":5,"max":[0.6437414288520813,0.4137558937072754,0.6437414288520813],"min":[-0.6437414288520813,-1.0,-0.6437414288520813]},{"componentType":5126,"type":"VEC3","byteOffset":0,"bufferView":6,"count":5,"max":[0.2709188163280487,0.3400000035762787,0.2709188163280487],"min":[0.11091882735490799,0.10000000149011612,0.11091882735490799]},{"componentType":5126,"count":5,"type":"VEC3","byteOffset":0,"bufferView":7,"max":[0.6437414288520813,0.4137558937072754,0.6437414288520813],"min":[-0.6437414288520813,-1.0,-0.6437414288520813]},{"componentType":5126,"type":"VEC3","byteOffset":0,"bufferView":8,"count":5,"max":[0.07999999821186066,0.3400000035762787,0.3499999940395355],"min":[-0.07999999821186066,0.10000000149011612,0.1899999976158142]},{"componentType":5126,"type":"VEC3","byteOffset":0,"bufferView":9,"count":5,"max":[-0.11091882735490799,0.3400000035762787,0.2709188163280487],"min":[-0.2709188163280487,0.10000000149011612,0.11091882735490799]},{"componentType":5126,"count":5,"type":"VEC3","byteOffset":0,"bufferView":10,"max":[0.6437414288520813,0.4137558937072754,0.6437414288520813],"min":[-0.6437414288520813,-1.0,-0.6437414288520813]},{"componentType":5126,"type":"VEC3","byteOffset":0,"bufferView":11,"count":5,"max":[-0.1899999976158142,0.3400000035762787,0.07999999821186066],"min":[-0.3499999940395355,0.10000000149011612,-0.07999999821186066]},{"componentType":5126,"type":"VEC3","byteOffset":0,"bufferView":12,"count":5,"max":[-0.11091882735490799,0.3400000035762787,-0.11091882735490799],"min":[-0.2709188163280487,0.10000000149011612,-0.2709188163280487]},{"componentType":5126,"type":"VEC3","byteOffset":0,"bufferView":13,"count":5,"max":[0.07999999821186066,0.3400000035762787,-0.1899999976158142],"min":[-0.07999999821186066,0.10000000149011612,-0.3499999940395355]},{"componentType":5126,"type":"VEC3","byteOffset":0,"bufferView":14,"count":5,"max":[0.2709188163280487,0.3400000035762787,-0.11091882735490799],"min":[0.11091882735490799,0.10000000149011612,-0.2709188163280487]},{"componentType":5125,"type":"SCALAR","bufferView":15,"count":24,"max":[5],"min":[0]},{"componentType":5126,"type":"VEC3","byteOffset":0,"bufferView":16,"count":6,"max":[0.07999999821186066,0.25999999046325684,0.07999999821186066],"min":[-0.07999999821186066,0.05999999865889549,-0.07999999821186066]},{"componentType":5126,"count":6,"type":"VEC3","byteOffset":0,"bufferView":17,"max":[1.0,1.0,1.0],"min":[-1.0,-1.0,-1.0]}],"meshes":[{"name":"band","extras":{"shape":"cylinder","height":0.1,"radius":0.3,"processed":true},"primitives":[{"attributes":{"POSITION":1,"NORMAL":2},"indices":0,"mode":4,"material":0}]},{"name":"point_0","extras":{"processed":true},"primitives":[{"attributes":{"POSITION":4,"NORMAL":5},"indices":3,"mode":4,"material":0}]},{"name":"point_1","extras":{"processed":true},"primitives":[{"attributes":{"POSITION":6,"NORMAL":7},"indices":3,"mode":4,"material":0}]},{"name":"point_2","extras":{"processed":true},"primitives":[{"attributes":{"POSITION":8,"NORMAL":5},"indices":3,"mode":4,"material":0}]},{"name":"point_3","extras":{"processed":true},"primitives":[{"attributes":{"POSITION":9,"NORMAL":10},"indices":3,"mode":4,"material":0}]},{"name":"point_4","extras":{"processed":true},"primitives":[{"attributes":{"POSITION":11,"NORMAL":5},"indices":3,"mode":4,"material":0}]},{"name":"point_5","extras":{"processed":true},"primitives":[{"attributes":{"POSITION":12,"NORMAL":5},"indices":3,"mode":4,"material":0}]},{"name":"point_6","extras":{"processed":true},"primitives":[{"attributes":{"POSITION":13,"NORMAL":5},"indices":3,"mode":4,"material":0}]},{"name":"point_7","extras":{"processed":true},"primitives":[{"attributes":{"POSITION":14,"NORMAL":7},"indices":3,"mode":4,"material":0}]},{"name":"jewel","extras":{"processed":true},"primitives":[{"attributes":{"POSITION":16,"NORMAL":17},"indices":15,"mode":4,"material":1}]}],"materials":[{"pbrMetallicRoughness":{"baseColorFactor":[1.0,0.8196078431372549,0.25098039215686274,1.0],"roughnessFactor":0.25,"metallicFactor":0.85},"emissiveFactor":[1.0,0.82,0.25],"name":"MAT_Neon_Gold","alphaMode":"OPAQUE","doubleSided":false},{"pbrMetallicRoughness":{"baseColorFactor":[1.0,0.1803921568627451,0.45098039215686275,1.0],"roughnessFactor":0.35,"metallicFactor":0.0},"emissiveFactor":[1.0,0.18,0.45],"name":"MAT_Neon_Magenta","alphaMode":"OPAQUE","doubleSided":false}],"nodes":[{"name":"world","children":[1,2,3,4,5,6,7,8,9,10]},{"name":"band","mesh":0},{"name":"point_0","mesh":1},{"name":"point_1","mesh":2},{"name":"point_2","mesh":3},{"name":"point_3","mesh":4},{"name":"point_4","mesh":5},{"name":"point_5","mesh":6},{"name":"point_6","mesh":7},{"name":"point_7","mesh":8},{"name":"jewel","mesh":9}],"buffers":[{"uri":"gltf_buffer.bin","byteLength":1788}],"bufferViews":[{"buffer":0,"byteOffset":0,"byteLength":384},{"buffer":0,"byteOffset":384,"byteLength":216},{"buffer":0,"byteOffset":600,"byteLength":216},{"buffer":0,"byteOffset":816,"byteLength":72},{"buffer":0,"byteOffset":888,"byteLength":60},{"buffer":0,"byteOffset":948,"byteLength":60},{"buffer":0,"byteOffset":1008,"byteLength":60},{"buffer":0,"byteOffset":1068,"byteLength":60},{"buffer":0,"byteOffset":1128,"byteLength":60},{"buffer":0,"byteOffset":1188,"byteLength":60},{"buffer":0,"byteOffset":1248,"byteLength":60},{"buffer":0,"byteOffset":1308,"byteLength":60},{"buffer":0,"byteOffset":1368,"byteLength":60},{"buffer":0,"byteOffset":1428,"byteLength":60},{"buffer":0,"byteOffset":1488,"byteLength":60},{"buffer":0,"byteOffset":1548,"byteLength":96},{"buffer":0,"byteOffset":1644,"byteLength":72},{"buffer":0,"byteOffset":1716,"byteLength":72}]}