{"scene":0,"scenes":[{"nodes":[0]}],"asset":{"version":"2.0","generator":"https://github.com/mikedh/trimesh"},"accessors":[{"componentType":5125,"type":"SCALAR","bufferView":0,"count":132,"max":[23],"min":[0]},{"componentType":5126,"type":"VEC3","byteOffset":0,"bufferView":1,"count":24,"max":[0.4000000059604645,0.4399999976158142,0.2800000011920929],"min":[-0.4000000059604645,0.0,-0.2800000011920929]},{"componentType":5126,"count":24,"type":"VEC3","byteOffset":0,"bufferView":2,"max":[0.6998487710952759,0.6998487710952759,0.6998487710952759],"min":[-0.6998487710952759,-0.6998487710952759,-0.6998487710952759]},{"componentType":5125,"type":"SCALAR","bufferView":3,"count":36,"max":[7],"min":[0]},{"componentType":5126,"type":"VEC3","byteOffset":0,"bufferView":4,"count":8,"max":[0.41999998688697815,0.4699999988079071,0.30000001192092896],"min":[-0.41999998688697815,0.41999998688697815,-0.30000001192092896]},{"componentType":5126,"count":8,"type":"VEC3","byteOffset":0,"bufferView":5,"max":[0.5773502588272095,0.5773502588272095,0.5773502588272095],"min":[-0.5773502588272095,-0.5773502588272095,-0.5773502588272095]},{"componentType":5126,"type":"VEC3","byteOffset":0,"bufferView":6,"count":8,"max":[0.07999999821186066,0.44999998807907104,0.3100000023841858],"min":[-0.07999999821186066,-0.009999999776482582,-0.3100000023841858]},{"componentType":5126,"type":"VEC3","byteOffset":0,"bufferView":7,"count":24,"max":[0.4099999964237213,0.9700101017951965,0.37584248185157776],"min":[-0.4099999964237213,0.4375442564487457,-0.03874704986810684]},{"componentType":5126,"count":24,"type":"VEC3","byteOffset":0,"bufferView":8,"max":[0.6998487710952759,0.9746993184089661,0.9746993184089661],"min":[-0.6998487710952759,-0.9746993184089661,-0.9746993184089661]},{"componentType":5126,"type":"VEC3","byteOffset":0,"bufferView":9,"count":8,"max":[0.41999998688697815,0.9925410151481628,0.40205705165863037],"min":[-0.41999998688697815,0.47810670733451843,0.025145111605525017]},{"componentType":5126,"count":8,"type":"VEC3","byteOffset":0,"bufferView":10,"max":[0.5773502588272095,0.8040921688079834,0.8040921688079834],"min":[-0.5773502588272095,-0.8040921688079834,-0.8040921688079834]},{"componentType":5126,"type":"VEC3","byteOffset":0,"bufferView":11,"count":8,"max":[0.3100000023841858,0.44999998807907104,0.18000000715255737],"min":[-0.3100000023841858,0.4000000059604645,-0.2199999988079071]}],"meshes":[{"name":"base","extras":{"processed":true},"primitives":[{"attributes":{"POSITION":1,"NORMAL":2},"indices":0,"mode":4,"material":0}]},{"name":"rim","extras":{"shape":"box","extents":[0.84,0.05,0.6]},"primitives":[{"attributes":{"POSITION":4,"NORMAL":5},"indices":3,"mode":4,"material":1}]},{"name":"strap","extras":{"shape":"box","extents":[0.16,0.46,0.62]},"primitives":[{"attributes":{"POSITION":6,"NORMAL":5},"indices":3,"mode":4,"material":1}]},{"name":"lid","extras":{"processed":true},"primitives":[{"attributes":{"POSITION":7,"NORMAL":8},"indices":0,"mode":4,"material":0}]},{"name":"lid_trim","extras":{"shape":"box","extents":[0.84,0.04,0.6]},"primitives":[{"attributes":{"POSITION":9,"NORMAL":10},"indices":3,"mode":4,"material":1}]},{"name":"spill","extras":{"shape":"box","extents":[0.62,0.05,0.4]},"primitives":[{"attributes":{"POSITION":11,"NORMAL":5},"indices":3,"mode":4,"material":2}]}],"materials":[{"pbrMetallicRoughness":{"baseColorFactor":[0.050980392156862744,0.0392156862745098,0.10980392156862745,1.0],"roughnessFactor":0.75,"metallicFactor":0.0},"emissiveFactor":[0.0,0.0,0.0],"name":"MAT_Dark_Chassis","alphaMode":"OPAQUE","doubleSided":false},{"pbrMetallicRoughness":{"baseColorFactor":[1.0,0.8196078431372549,0.25098039215686274,1.0],"roughnessFactor":0.25,"metallicFactor":0.85},"emissiveFactor":[1.0,0.82,0.25],"name":"MAT_Neon_Gold","alphaMode":"OPAQUE","doubleSided":false},{"pbrMetallicRoughness":{"baseColorFactor":[0.9215686274509803,0.9607843137254902,1.0,1.0],"roughnessFactor":0.3,"metallicFactor":0.0},"emissiveFactor":[0.92,0.96,1.0],"name":"MAT_Neon_White","alphaMode":"OPAQUE","doubleSided":false}],"nodes":[{"name":"world","children":[1,2,3,4,5,6]},{"name":"base","mesh":0},{"name":"rim","mesh":1},{"name":"strap","mesh":2},{"name":"lid","mesh":3},{"name":"lid_trim","mesh":4},{"name":"spill","mesh":5}],"buffers":[{"uri":"gltf_buffer.bin","byteLength":2400}],"bufferViews":[{"buffer":0,"byteOffset":0,"byteLength":528},{"buffer":0,"byteOffset":528,"byteLength":288},{"buffer":0,"byteOffset":816,"byteLength":288},{"buffer":0,"byteOffset":1104,"byteLength":144},{"buffer":0,"byteOffset":1248,"byteLength":96},{"buffer":0,"byteOffset":1344,"byteLength":96},{"buffer":0,"byteOffset":1440,"byteLength":96},{"buffer":0,"byteOffset":1536,"byteLength":288},{"buffer":0,"byteOffset":1824,"byteLength":288},{"buffer":0,"byteOffset":2112,"byteLength":96},{"buffer":0,"byteOffset":2208,"byteLength":96},{"buffer":0,"byteOffset":2304,"byteLength":96}]}