{"scene":0,"scenes":[{"nodes":[0]}],"asset":{"version":"2.0","generator":"https://github.com/mikedh/trimesh"},"accessors":[{"componentType":5125,"type":"SCALAR","bufferView":0,"count":468,"max":[79],"min":[0]},{"componentType":5126,"type":"VEC3","byteOffset":0,"bufferView":1,"count":80,"max":[0.3400000035762787,0.3400000035762787,0.05000000074505806],"min":[-0.3400000035762787,-0.3400000035762787,-0.05000000074505806]},{"componentType":5126,"count":80,"type":"VEC3","byteOffset":0,"bufferView":2,"max":[0.8483613133430481,0.8483613133430481,0.9763028621673584],"min":[-0.8483613133430481,-0.8483613133430481,-0.9763028621673584]},{"componentType":5125,"type":"SCALAR","bufferView":3,"count":468,"max":[79],"min":[0]},{"componentType":5126,"type":"VEC3","byteOffset":0,"bufferView":4,"count":80,"max":[0.27000001072883606,0.27000001072883606,0.05999999865889549],"min":[-0.27000001072883606,-0.27000001072883606,-0.05999999865889549]},{"componentType":5126,"count":80,"type":"VEC3","byteOffset":0,"bufferView":5,"max":[0.8866380453109741,0.8866380453109741,0.9525393843650818],"min":[-0.8866380453109741,-0.8866380453109741,-0.9525393843650818]},{"componentType":5125,"type":"SCALAR","bufferView":6,"count":48,"max":[9],"min":[0]},{"componentType":5126,"type":"VEC3","byteOffset":0,"bufferView":7,"count":10,"max":[0.2199999988079071,0.2199999988079071,-0.004999999888241291],"min":[-0.2199999988079071,-0.2199999988079071,-0.0949999988079071]},{"componentType":5126,"count":10,"type":"VEC3","byteOffset":0,"bufferView":8,"max":[0.8164966106414795,0.8164966106414795,1.0],"min":[-0.8164966106414795,-0.8164966106414795,-1.0]},{"componentType":5125,"type":"SCALAR","bufferView":9,"count":36,"max":[7],"min":[0]},{"componentType":5126,"type":"VEC3","byteOffset":0,"bufferView":10,"count":8,"max":[0.2719880938529968,0.22631554305553436,-0.07000000029802322],"min":[-0.2719880938529968,-0.22631554305553436,-0.12999999523162842]},{"componentType":5126,"count":8,"type":"VEC3","byteOffset":0,"bufferView":11,"max":[0.8104105591773987,0.8104105591773987,0.5773502588272095],"min":[-0.8104105591773987,-0.8104105591773987,-0.5773502588272095]}],"meshes":[{"name":"disc","extras":{"processed":true},"primitives":[{"attributes":{"POSITION":1,"NORMAL":2},"indices":0,"mode":4,"material":0}]},{"name":"field","extras":{"processed":true},"primitives":[{"attributes":{"POSITION":4,"NORMAL":5},"indices":3,"mode":4,"material":1}]},{"name":"screen","extras":{"shape":"cylinder","height":0.09,"radius":0.22,"processed":true},"primitives":[{"attributes":{"POSITION":7,"NORMAL":8},"indices":6,"mode":4,"material":2}]},{"name":"slash","extras":{"shape":"box","extents":[0.62,0.09,0.06]},"primitives":[{"attributes":{"POSITION":10,"NORMAL":11},"indices":9,"mode":4,"material":3}]}],"materials":[{"pbrMetallicRoughness":{"baseColorFactor":[0.2196078431372549,0.23137254901960785,0.2980392156862745,1.0],"roughnessFactor":0.4,"metallicFactor":0.75},"emissiveFactor":[0.0,0.0,0.0],"name":"MAT_Metal_Steel","alphaMode":"OPAQUE","doubleSided":false},{"pbrMetallicRoughness":{"baseColorFactor":[0.050980392156862744,0.0392156862745098,0.10980392156862745,1.0],"roughnessFactor":0.75,"metallicFactor":0.0},"emissiveFactor":[0.0,0.0,0.0],"name":"MAT_Dark_Chassis","alphaMode":"OPAQUE","doubleSided":false},{"pbrMetallicRoughness":{"baseColorFactor":[0.9215686274509803,0.9607843137254902,1.0,1.0],"roughnessFactor":0.3,"metallicFactor":0.0},"emissiveFactor":[0.92,0.96,1.0],"name":"MAT_Neon_White","alphaMode":"OPAQUE","doubleSided":false},{"pbrMetallicRoughness":{"baseColorFactor":[1.0,0.1803921568627451,0.45098039215686275,1.0],"roughnessFactor":0.35,"metallicFactor":0.0},"emissiveFactor":[1.0,0.18,0.45],"name":"MAT_Neon_Magenta","alphaMode":"OPAQUE","doubleSided":false}],"nodes":[{"name":"world","children":[1,2,3,4]},{"name":"disc","mesh":0},{"name":"field","mesh":1},{"name":"screen","mesh":2},{"name":"slash","mesh":3}],"buffers":[{"uri":"gltf_buffer.bin","byteLength":8352}],"bufferViews":[{"buffer":0,"byteOffset":0,"byteLength":1872},{"buffer":0,"byteOffset":1872,"byteLength":960},{"buffer":0,"byteOffset":2832,"byteLength":960},{"buffer":0,"byteOffset":3792,"byteLength":1872},{"buffer":0,"byteOffset":5664,"byteLength":960},{"buffer":0,"byteOffset":6624,"byteLength":960},{"buffer":0,"byteOffset":7584,"byteLength":192},{"buffer":0,"byteOffset":7776,"byteLength":120},{"buffer":0,"byteOffset":7896,"byteLength":120},{"buffer":0,"byteOffset":8016,"byteLength":144},{"buffer":0,"byteOffset":8160,"byteLength":96},{"buffer":0,"byteOffset":8256,"byteLength":96}]}