{"scene":0,"scenes":[{"nodes":[0]}],"asset":{"version":"2.0","generator":"https://github.com/mikedh/trimesh"},"accessors":[{"componentType":5125,"type":"SCALAR","bufferView":0,"count":468,"max":[79],"min":[0]},{"componentType":5126,"type":"VEC3","byteOffset":0,"bufferView":1,"count":80,"max":[0.3499999940395355,0.3499999940395355,0.029999999329447746],"min":[-0.3499999940395355,-0.3499999940395355,-0.029999999329447746]},{"componentType":5126,"type":"VEC2","byteOffset":0,"bufferView":5,"count":80,"max":[0.5,1.5],"min":[-0.5,0.5]},{"componentType":5126,"count":80,"type":"VEC3","byteOffset":0,"bufferView":6,"max":[0.8081117272377014,0.8081117272377014,0.9913069605827332],"min":[-0.8081117272377014,-0.8081117272377014,-0.9913069605827332]}],"meshes":[{"name":"disc","extras":{"processed":true},"primitives":[{"attributes":{"POSITION":1,"TEXCOORD_0":2,"NORMAL":3},"indices":0,"mode":4,"material":0}]}],"images":[{"bufferView":2,"mimeType":"image/png"},{"bufferView":3,"mimeType":"image/png"},{"bufferView":4,"mimeType":"image/png"}],"textures":[{"source":0},{"source":1},{"source":2}],"materials":[{"pbrMetallicRoughness":{"baseColorTexture":{"index":0},"baseColorFactor":[1.0,0.8196078431372549,0.25098039215686274,1.0],"roughnessFactor":0.25,"metallicFactor":0.85,"metallicRoughnessTexture":{"index":2}},"emissiveFactor":[1.0,1.0,1.0],"name":"MAT_Coin_Face","alphaMode":"OPAQUE","doubleSided":false,"emissiveTexture":{"index":1}}],"nodes":[{"name":"world","children":[1]},{"name":"disc","mesh":0}],"buffers":[{"uri":"gltf_buffer.bin","byteLength":11720}],"bufferViews":[{"buffer":0,"byteOffset":0,"byteLength":1872},{"buffer":0,"byteOffset":1872,"byteLength":960},{"buffer":0,"byteOffset":2832,"byteLength":3448},{"buffer":0,"byteOffset":6280,"byteLength":2368},{"buffer":0,"byteOffset":8648,"byteLength":1472},{"buffer":0,"byteOffset":10120,"byteLength":640},{"buffer":0,"byteOffset":10760,"byteLength":960}]}