{"scene":0,"scenes":[{"nodes":[0]}],"asset":{"version":"2.0","generator":"https://github.com/mikedh/trimesh"},"accessors":[{"componentType":5125,"type":"SCALAR","bufferView":0,"count":96,"max":[17],"min":[0]},{"componentType":5126,"type":"VEC3","byteOffset":0,"bufferView":1,"count":18,"max":[0.3048802316188812,0.3048802316188812,0.20000000298023224],"min":[-0.3048802316188812,-0.3048802316188812,-0.20000000298023224]},{"componentType":5126,"count":18,"type":"VEC3","byteOffset":0,"bufferView":2,"max":[0.7172835469245911,0.7172835469245911,1.0],"min":[-0.7172835469245911,-0.7172835469245911,-1.0]},{"componentType":5126,"type":"VEC3","byteOffset":0,"bufferView":3,"count":18,"max":[0.24944747984409332,0.24944747984409332,0.20999999344348907],"min":[-0.24944747984409332,-0.24944747984409332,-0.20999999344348907]},{"componentType":5125,"type":"SCALAR","bufferView":4,"count":36,"max":[7],"min":[0]},{"componentType":5126,"type":"VEC3","byteOffset":0,"bufferView":5,"count":8,"max":[-0.0017992646899074316,0.10960198938846588,-0.1850000023841858],"min":[-0.19820073246955872,-0.10960198938846588,-0.23499999940395355]},{"componentType":5126,"count":8,"type":"VEC3","byteOffset":0,"bufferView":6,"max":[0.8133895397186279,0.8133895397186279,0.5773502588272095],"min":[-0.8133895397186279,-0.8133895397186279,-0.5773502588272095]},{"componentType":5126,"type":"VEC3","byteOffset":0,"bufferView":7,"count":8,"max":[-0.0017992646899074316,0.10960198938846588,-0.1850000023841858],"min":[-0.19820073246955872,-0.10960198938846588,-0.23499999940395355]},{"componentType":5126,"count":8,"type":"VEC3","byteOffset":0,"bufferView":8,"max":[0.8133895397186279,0.8133895397186279,0.5773502588272095],"min":[-0.8133895397186279,-0.8133895397186279,-0.5773502588272095]},{"componentType":5126,"type":"VEC3","byteOffset":0,"bufferView":9,"count":8,"max":[-0.0017992646899074316,0.10960198938846588,0.23499999940395355],"min":[-0.19820073246955872,-0.10960198938846588,0.1850000023841858]},{"componentType":5126,"type":"VEC3","byteOffset":0,"bufferView":10,"count":8,"max":[-0.0017992646899074316,0.10960198938846588,0.23499999940395355],"min":[-0.19820073246955872,-0.10960198938846588,0.1850000023841858]},{"componentType":5126,"type":"VEC3","byteOffset":0,"bufferView":11,"count":8,"max":[0.18000000715255737,0.11749999970197678,0.23000000417232513],"min":[0.019999999552965164,0.07249999791383743,-0.23000000417232513]},{"componentType":5126,"count":8,"type":"VEC3","byteOffset":0,"bufferView":12,"max":[0.5773502588272095,0.5773502588272095,0.5773502588272095],"min":[-0.5773502588272095,-0.5773502588272095,-0.5773502588272095]},{"componentType":5126,"type":"VEC3","byteOffset":0,"bufferView":13,"count":8,"max":[0.18000000715255737,0.02250000089406967,0.23000000417232513],"min":[0.019999999552965164,-0.02250000089406967,-0.23000000417232513]},{"componentType":5126,"type":"VEC3","byteOffset":0,"bufferView":14,"count":8,"max":[0.18000000715255737,-0.07249999791383743,0.23000000417232513],"min":[0.019999999552965164,-0.11749999970197678,-0.23000000417232513]},{"componentType":5126,"type":"VEC3","byteOffset":0,"bufferView":15,"count":8,"max":[0.1875,0.08500000089406967,0.23000000417232513],"min":[0.14249999821186066,0.014999999664723873,-0.23000000417232513]},{"componentType":5126,"type":"VEC3","byteOffset":0,"bufferView":16,"count":8,"max":[0.057500001043081284,-0.013000000268220901,0.23000000417232513],"min":[0.012500000186264515,-0.08299999684095383,-0.23000000417232513]}],"meshes":[{"name":"tablet","extras":{"shape":"cylinder","height":0.4,"radius":0.33,"processed":true},"primitives":[{"attributes":{"POSITION":1,"NORMAL":2},"indices":0,"mode":4,"material":0}]},{"name":"inset","extras":{"shape":"cylinder","height":0.42,"radius":0.27,"processed":true},"primitives":[{"attributes":{"POSITION":3,"NORMAL":2},"indices":0,"mode":4,"material":1}]},{"name":"x_-1_-0.21","extras":{"shape":"box","extents":[0.055,0.24,0.05]},"primitives":[{"attributes":{"POSITION":5,"NORMAL":6},"indices":4,"mode":4,"material":0}]},{"name":"x_1_-0.21","extras":{"shape":"box","extents":[0.055,0.24,0.05]},"primitives":[{"attributes":{"POSITION":7,"NORMAL":8},"indices":4,"mode":4,"material":0}]},{"name":"x_-1_0.21","extras":{"shape":"box","extents":[0.055,0.24,0.05]},"primitives":[{"attributes":{"POSITION":9,"NORMAL":6},"indices":4,"mode":4,"material":0}]},{"name":"x_1_0.21","extras":{"shape":"box","extents":[0.055,0.24,0.05]},"primitives":[{"attributes":{"POSITION":10,"NORMAL":8},"indices":4,"mode":4,"material":0}]},{"name":"two_top","extras":{"shape":"box","extents":[0.16,0.045,0.46]},"primitives":[{"attributes":{"POSITION":11,"NORMAL":12},"indices":4,"mode":4,"material":0}]},{"name":"two_mid","extras":{"shape":"box","extents":[0.16,0.045,0.46]},"primitives":[{"attributes":{"POSITION":13,"NORMAL":12},"indices":4,"mode":4,"material":0}]},{"name":"two_bot","extras":{"shape":"box","extents":[0.16,0.045,0.46]},"primitives":[{"attributes":{"POSITION":14,"NORMAL":12},"indices":4,"mode":4,"material":0}]},{"name":"two_riser_hi","extras":{"shape":"box","extents":[0.045,0.07,0.46]},"primitives":[{"attributes":{"POSITION":15,"NORMAL":12},"indices":4,"mode":4,"material":0}]},{"name":"two_riser_lo","extras":{"shape":"box","extents":[0.045,0.07,0.46]},"primitives":[{"attributes":{"POSITION":16,"NORMAL":12},"indices":4,"mode":4,"material":0}]}],"materials":[{"pbrMetallicRoughness":{"baseColorFactor":[1.0,0.8196078431372549,0.25098039215686274,1.0],"roughnessFactor":0.25,"metallicFactor":0.85},"emissiveFactor":[1.0,0.82,0.25],"name":"MAT_Neon_Gold","alphaMode":"OPAQUE","doubleSided":false},{"pbrMetallicRoughness":{"baseColorFactor":[0.050980392156862744,0.0392156862745098,0.10980392156862745,1.0],"roughnessFactor":0.75,"metallicFactor":0.0},"emissiveFactor":[0.0,0.0,0.0],"name":"MAT_Dark_Chassis","alphaMode":"OPAQUE","doubleSided":false}],"nodes":[{"name":"world","children":[1,2,3,4,5,6,7,8,9,10,11]},{"name":"tablet","mesh":0},{"name":"inset","mesh":1},{"name":"x_-1_-0.21","mesh":2},{"name":"x_1_-0.21","mesh":3},{"name":"x_-1_0.21","mesh":4},{"name":"x_1_0.21","mesh":5},{"name":"two_top","mesh":6},{"name":"two_mid","mesh":7},{"name":"two_bot","mesh":8},{"name":"two_riser_hi","mesh":9},{"name":"two_riser_lo","mesh":10}],"buffers":[{"uri":"gltf_buffer.bin","byteLength":2328}],"bufferViews":[{"buffer":0,"byteOffset":0,"byteLength":384},{"buffer":0,"byteOffset":384,"byteLength":216},{"buffer":0,"byteOffset":600,"byteLength":216},{"buffer":0,"byteOffset":816,"byteLength":216},{"buffer":0,"byteOffset":1032,"byteLength":144},{"buffer":0,"byteOffset":1176,"byteLength":96},{"buffer":0,"byteOffset":1272,"byteLength":96},{"buffer":0,"byteOffset":1368,"byteLength":96},{"buffer":0,"byteOffset":1464,"byteLength":96},{"buffer":0,"byteOffset":1560,"byteLength":96},{"buffer":0,"byteOffset":1656,"byteLength":96},{"buffer":0,"byteOffset":1752,"byteLength":96},{"buffer":0,"byteOffset":1848,"byteLength":96},{"buffer":0,"byteOffset":1944,"byteLength":96},{"buffer":0,"byteOffset":2040,"byteLength":96},{"buffer":0,"byteOffset":2136,"byteLength":96},{"buffer":0,"byteOffset":2232,"byteLength":96}]}