{"scene":0,"scenes":[{"nodes":[0]}],"asset":{"version":"2.0","generator":"https://github.com/mikedh/trimesh"},"accessors":[{"componentType":5125,"type":"SCALAR","bufferView":0,"count":132,"max":[23],"min":[0]},{"componentType":5126,"type":"VEC3","byteOffset":0,"bufferView":1,"count":24,"max":[0.23000000417232513,0.2800000011920929,0.2199999988079071],"min":[-0.23000000417232513,0.11999999731779099,-0.2199999988079071]},{"componentType":5126,"count":24,"type":"VEC3","byteOffset":0,"bufferView":2,"max":[0.6998487710952759,0.6998487710952759,0.6998487710952759],"min":[-0.6998487710952759,-0.6998487710952759,-0.6998487710952759]},{"componentType":5125,"type":"SCALAR","bufferView":3,"count":132,"max":[23],"min":[0]},{"componentType":5126,"type":"VEC3","byteOffset":0,"bufferView":4,"count":24,"max":[-0.07999999821186066,0.14000000059604645,0.2199999988079071],"min":[-0.23000000417232513,-0.18000000715255737,-0.2199999988079071]},{"componentType":5125,"type":"SCALAR","bufferView":5,"count":36,"max":[7],"min":[0]},{"componentType":5126,"type":"VEC3","byteOffset":0,"bufferView":6,"count":8,"max":[-0.07999999821186066,-0.1899999976158142,0.22499999403953552],"min":[-0.23000000417232513,-0.30000001192092896,-0.22499999403953552]},{"componentType":5126,"count":8,"type":"VEC3","byteOffset":0,"bufferView":7,"max":[0.5773502588272095,0.5773502588272095,0.5773502588272095],"min":[-0.5773502588272095,-0.5773502588272095,-0.5773502588272095]},{"componentType":5126,"type":"VEC3","byteOffset":0,"bufferView":8,"count":24,"max":[0.23000000417232513,0.14000000059604645,0.2199999988079071],"min":[0.07999999821186066,-0.18000000715255737,-0.2199999988079071]},{"componentType":5126,"type":"VEC3","byteOffset":0,"bufferView":9,"count":8,"max":[0.23000000417232513,-0.1899999976158142,0.22499999403953552],"min":[0.07999999821186066,-0.30000001192092896,-0.22499999403953552]},{"componentType":5126,"type":"VEC3","byteOffset":0,"bufferView":10,"count":8,"max":[0.15000000596046448,0.28999999165534973,0.23000000417232513],"min":[-0.15000000596046448,0.23999999463558197,-0.23000000417232513]}],"meshes":[{"name":"yoke","extras":{"processed":true},"primitives":[{"attributes":{"POSITION":1,"NORMAL":2},"indices":0,"mode":4,"material":0}]},{"name":"prong_-1","extras":{"processed":true},"primitives":[{"attributes":{"POSITION":4,"NORMAL":2},"indices":3,"mode":4,"material":0}]},{"name":"pole_-1","extras":{"shape":"box","extents":[0.15,0.11,0.45]},"primitives":[{"attributes":{"POSITION":6,"NORMAL":7},"indices":5,"mode":4,"material":1}]},{"name":"prong_1","extras":{"processed":true},"primitives":[{"attributes":{"POSITION":8,"NORMAL":2},"indices":3,"mode":4,"material":0}]},{"name":"pole_1","extras":{"shape":"box","extents":[0.15,0.11,0.45]},"primitives":[{"attributes":{"POSITION":9,"NORMAL":7},"indices":5,"mode":4,"material":1}]},{"name":"band","extras":{"shape":"box","extents":[0.3,0.05,0.46]},"primitives":[{"attributes":{"POSITION":10,"NORMAL":7},"indices":5,"mode":4,"material":1}]}],"materials":[{"pbrMetallicRoughness":{"baseColorFactor":[0.2,1.0,0.8509803921568627,1.0],"roughnessFactor":0.35,"metallicFactor":0.0},"emissiveFactor":[0.2,1.0,0.85],"name":"MAT_Neon_Cyan","alphaMode":"OPAQUE","doubleSided":false},{"pbrMetallicRoughness":{"baseColorFactor":[0.9215686274509803,0.9607843137254902,1.0,1.0],"roughnessFactor":0.3,"metallicFactor":0.0},"emissiveFactor":[0.92,0.96,1.0],"name":"MAT_Neon_White","alphaMode":"OPAQUE","doubleSided":false}],"nodes":[{"name":"world","children":[1,2,3,4,5,6]},{"name":"yoke","mesh":0},{"name":"prong_-1","mesh":1},{"name":"pole_-1","mesh":2},{"name":"prong_1","mesh":3},{"name":"pole_1","mesh":4},{"name":"band","mesh":5}],"buffers":[{"uri":"gltf_buffer.bin","byteLength":2736}],"bufferViews":[{"buffer":0,"byteOffset":0,"byteLength":528},{"buffer":0,"byteOffset":528,"byteLength":288},{"buffer":0,"byteOffset":816,"byteLength":288},{"buffer":0,"byteOffset":1104,"byteLength":528},{"buffer":0,"byteOffset":1632,"byteLength":288},{"buffer":0,"byteOffset":1920,"byteLength":144},{"buffer":0,"byteOffset":2064,"byteLength":96},{"buffer":0,"byteOffset":2160,"byteLength":96},{"buffer":0,"byteOffset":2256,"byteLength":288},{"buffer":0,"byteOffset":2544,"byteLength":96},{"buffer":0,"byteOffset":2640,"byteLength":96}]}