{"scene":0,"scenes":[{"nodes":[0]}],"asset":{"version":"2.0","generator":"https://github.com/mikedh/trimesh"},"accessors":[{"componentType":5125,"type":"SCALAR","bufferView":0,"count":72,"max":[13],"min":[0]},{"componentType":5126,"type":"VEC3","byteOffset":0,"bufferView":1,"count":14,"max":[0.3400000035762787,0.2944486439228058,0.07000000029802322],"min":[-0.3400000035762787,-0.2944486439228058,-0.07000000029802322]},{"componentType":5126,"count":14,"type":"VEC3","byteOffset":0,"bufferView":2,"max":[0.7924058437347412,0.6862435936927795,1.0],"min":[-0.7924058437347412,-0.6862435936927795,-1.0]},{"componentType":5126,"type":"VEC3","byteOffset":0,"bufferView":3,"count":14,"max":[0.25999999046325684,0.22516660392284393,0.14000000059604645],"min":[-0.25999999046325684,-0.22516660392284393,-0.019999999552965164]},{"componentType":5126,"count":14,"type":"VEC3","byteOffset":0,"bufferView":4,"max":[0.7924058437347412,0.6862435936927795,1.0],"min":[-0.7924058437347412,-0.6862435936927795,-1.0]},{"componentType":5125,"type":"SCALAR","bufferView":5,"count":24,"max":[5],"min":[0]},{"componentType":5126,"type":"VEC3","byteOffset":0,"bufferView":6,"count":6,"max":[0.17000000178813934,0.20000000298023224,0.3700000047683716],"min":[-0.17000000178813934,-0.20000000298023224,-0.09000000357627869]},{"componentType":5126,"count":6,"type":"VEC3","byteOffset":0,"bufferView":7,"max":[1.0,1.0,1.0],"min":[-1.0,-1.0,-1.0]},{"componentType":5126,"type":"VEC3","byteOffset":0,"bufferView":8,"count":6,"max":[0.08500000089406967,0.10000000149011612,0.2800000011920929],"min":[-0.08500000089406967,-0.10000000149011612,0.03999999910593033]},{"componentType":5126,"count":6,"type":"VEC3","byteOffset":0,"bufferView":9,"max":[1.0,1.0,1.0],"min":[-1.0,-1.0,-1.0]}],"meshes":[{"name":"plate","extras":{"shape":"cylinder","height":0.14,"radius":0.34,"processed":true},"primitives":[{"attributes":{"POSITION":1,"NORMAL":2},"indices":0,"mode":4,"material":0}]},{"name":"field","extras":{"shape":"cylinder","height":0.16,"radius":0.26,"processed":true},"primitives":[{"attributes":{"POSITION":3,"NORMAL":4},"indices":0,"mode":4,"material":1}]},{"name":"core","extras":{"processed":true},"primitives":[{"attributes":{"POSITION":6,"NORMAL":7},"indices":5,"mode":4,"material":2}]},{"name":"core_hot","extras":{"processed":true},"primitives":[{"attributes":{"POSITION":8,"NORMAL":9},"indices":5,"mode":4,"material":3}]}],"materials":[{"pbrMetallicRoughness":{"baseColorFactor":[0.34901960784313724,0.6,1.0,1.0],"roughnessFactor":0.3,"metallicFactor":0.0},"emissiveFactor":[0.35,0.6,1.0],"name":"MAT_Neon_Blue","alphaMode":"OPAQUE","doubleSided":false},{"pbrMetallicRoughness":{"baseColorFactor":[0.050980392156862744,0.0392156862745098,0.10980392156862745,1.0],"roughnessFactor":0.75,"metallicFactor":0.0},"emissiveFactor":[0.0,0.0,0.0],"name":"MAT_Dark_Chassis","alphaMode":"OPAQUE","doubleSided":false},{"pbrMetallicRoughness":{"baseColorFactor":[0.34901960784313724,0.6,1.0,0.45098039215686275],"roughnessFactor":0.1,"metallicFactor":0.0},"emissiveFactor":[0.315,0.54,0.9],"name":"MAT_Glass_Tint","alphaMode":"BLEND","doubleSided":false},{"pbrMetallicRoughness":{"baseColorFactor":[0.9215686274509803,0.9607843137254902,1.0,1.0],"roughnessFactor":0.3,"metallicFactor":0.0},"emissiveFactor":[0.92,0.96,1.0],"name":"MAT_Neon_White","alphaMode":"OPAQUE","doubleSided":false}],"nodes":[{"name":"world","children":[1,2,3,4]},{"name":"plate","mesh":0},{"name":"field","mesh":1},{"name":"core","mesh":2},{"name":"core_hot","mesh":3}],"buffers":[{"uri":"gltf_buffer.bin","byteLength":1344}],"bufferViews":[{"buffer":0,"byteOffset":0,"byteLength":288},{"buffer":0,"byteOffset":288,"byteLength":168},{"buffer":0,"byteOffset":456,"byteLength":168},{"buffer":0,"byteOffset":624,"byteLength":168},{"buffer":0,"byteOffset":792,"byteLength":168},{"buffer":0,"byteOffset":960,"byteLength":96},{"buffer":0,"byteOffset":1056,"byteLength":72},{"buffer":0,"byteOffset":1128,"byteLength":72},{"buffer":0,"byteOffset":1200,"byteLength":72},{"buffer":0,"byteOffset":1272,"byteLength":72}]}