{"scene":0,"scenes":[{"nodes":[0]}],"asset":{"version":"2.0","generator":"https://github.com/mikedh/trimesh"},"accessors":[{"componentType":5125,"type":"SCALAR","bufferView":0,"count":132,"max":[23],"min":[0]},{"componentType":5126,"type":"VEC3","byteOffset":0,"bufferView":1,"count":24,"max":[0.8999999761581421,0.5,0.5600000023841858],"min":[-0.8999999761581421,-0.5,-0.6000000238418579]},{"componentType":5126,"count":24,"type":"VEC3","byteOffset":0,"bufferView":2,"max":[0.6998487710952759,0.6998487710952759,0.6998487710952759],"min":[-0.6998487710952759,-0.6998487710952759,-0.6998487710952759]},{"componentType":5125,"type":"SCALAR","bufferView":3,"count":36,"max":[7],"min":[0]},{"componentType":5126,"type":"VEC3","byteOffset":0,"bufferView":4,"count":8,"max":[0.8500000238418579,0.44999998807907104,0.5899999737739563],"min":[-0.8500000238418579,-0.44999998807907104,0.5600000023841858]},{"componentType":5126,"count":8,"type":"VEC3","byteOffset":0,"bufferView":5,"max":[0.5773502588272095,0.5773502588272095,0.5773502588272095],"min":[-0.5773502588272095,-0.5773502588272095,-0.5773502588272095]},{"componentType":5126,"type":"VEC3","byteOffset":0,"bufferView":6,"count":8,"max":[-0.46754810214042664,0.09281089156866074,0.6000000238418579],"min":[-0.7623557448387146,-0.11781089007854462,0.574999988079071]},{"componentType":5126,"count":8,"type":"VEC3","byteOffset":0,"bufferView":7,"max":[0.7886751294136047,0.7886751294136047,0.5773502588272095],"min":[-0.7886751294136047,-0.7886751294136047,-0.5773502588272095]},{"componentType":5126,"type":"VEC3","byteOffset":0,"bufferView":8,"count":8,"max":[-0.3376442790031433,0.09281089156866074,0.6000000238418579],"min":[-0.6324518918991089,-0.11781089007854462,0.574999988079071]},{"componentType":5126,"count":8,"type":"VEC3","byteOffset":0,"bufferView":9,"max":[0.7886751294136047,0.7886751294136047,0.5773502588272095],"min":[-0.7886751294136047,-0.7886751294136047,-0.5773502588272095]},{"componentType":5126,"type":"VEC3","byteOffset":0,"bufferView":10,"count":8,"max":[0.08245190232992172,0.09281089156866074,0.6000000238418579],"min":[-0.21235571801662445,-0.11781089007854462,0.574999988079071]},{"componentType":5126,"type":"VEC3","byteOffset":0,"bufferView":11,"count":8,"max":[0.21235571801662445,0.09281089156866074,0.6000000238418579],"min":[-0.08245190232992172,-0.11781089007854462,0.574999988079071]},{"componentType":5126,"type":"VEC3","byteOffset":0,"bufferView":12,"count":8,"max":[0.6324518918991089,0.09281089156866074,0.6000000238418579],"min":[0.3376442790031433,-0.11781089007854462,0.574999988079071]},{"componentType":5126,"type":"VEC3","byteOffset":0,"bufferView":13,"count":8,"max":[0.7623557448387146,0.09281089156866074,0.6000000238418579],"min":[0.46754810214042664,-0.11781089007854462,0.574999988079071]},{"componentType":5125,"type":"SCALAR","bufferView":14,"count":18,"max":[4],"min":[0]},{"componentType":5126,"type":"VEC3","byteOffset":0,"bufferView":15,"count":5,"max":[-0.6399999856948853,-0.3400000035762787,0.4099999964237213],"min":[-0.8600000143051147,-0.5,0.1899999976158142]},{"componentType":5126,"count":5,"type":"VEC3","byteOffset":0,"bufferView":16,"max":[0.6763614416122437,0.29166823625564575,0.6763614416122437],"min":[-0.6763614416122437,-1.0,-0.6763614416122437]},{"componentType":5126,"type":"VEC3","byteOffset":0,"bufferView":17,"count":5,"max":[-0.3400000035762787,-0.3400000035762787,0.4099999964237213],"min":[-0.5600000023841858,-0.5,0.1899999976158142]},{"componentType":5126,"count":5,"type":"VEC3","byteOffset":0,"bufferView":18,"max":[0.6763614416122437,0.29166823625564575,0.6763614416122437],"min":[-0.6763614416122437,-1.0,-0.6763614416122437]},{"componentType":5126,"type":"VEC3","byteOffset":0,"bufferView":19,"count":5,"max":[-0.03999999910593033,-0.3400000035762787,0.4099999964237213],"min":[-0.25999999046325684,-0.5,0.1899999976158142]},{"componentType":5126,"type":"VEC3","byteOffset":0,"bufferView":20,"count":5,"max":[0.25999999046325684,-0.3400000035762787,0.4099999964237213],"min":[0.03999999910593033,-0.5,0.1899999976158142]},{"componentType":5126,"type":"VEC3","byteOffset":0,"bufferView":21,"count":5,"max":[0.5600000023841858,-0.3400000035762787,0.4099999964237213],"min":[0.3400000035762787,-0.5,0.1899999976158142]},{"componentType":5126,"type":"VEC3","byteOffset":0,"bufferView":22,"count":5,"max":[0.8600000143051147,-0.3400000035762787,0.4099999964237213],"min":[0.6399999856948853,-0.5,0.1899999976158142]},{"componentType":5126,"type":"VEC3","byteOffset":0,"bufferView":23,"count":8,"max":[0.8999999761581421,-0.4399999976158142,0.6000000238418579],"min":[-0.8999999761581421,-0.5,-0.6000000238418579]},{"componentType":5126,"type":"VEC3","byteOffset":0,"bufferView":24,"count":8,"max":[0.8999999761581421,0.5,0.03999999910593033],"min":[0.8199999928474426,-0.5,-0.03999999910593033]},{"componentType":5126,"type":"VEC3","byteOffset":0,"bufferView":25,"count":8,"max":[-0.8199999928474426,0.5,0.03999999910593033],"min":[-0.8999999761581421,-0.5,-0.03999999910593033]}],"meshes":[{"name":"body","extras":{"processed":true},"primitives":[{"attributes":{"POSITION":1,"NORMAL":2},"indices":0,"mode":4,"material":0}]},{"name":"faceplate","extras":{"shape":"box","extents":[1.7,0.9,0.03]},"primitives":[{"attributes":{"POSITION":4,"NORMAL":5},"indices":3,"mode":4,"material":1}]},{"name":"chevron_0_-1","extras":{"shape":"box","extents":[0.3,0.07,0.025]},"primitives":[{"attributes":{"POSITION":6,"NORMAL":7},"indices":3,"mode":4,"material":2}]},{"name":"chevron_0_1","extras":{"shape":"box","extents":[0.3,0.07,0.025]},"primitives":[{"attributes":{"POSITION":8,"NORMAL":9},"indices":3,"mode":4,"material":2}]},{"name":"chevron_1_-1","extras":{"shape":"box","extents":[0.3,0.07,0.025]},"primitives":[{"attributes":{"POSITION":10,"NORMAL":7},"indices":3,"mode":4,"material":2}]},{"name":"chevron_1_1","extras":{"shape":"box","extents":[0.3,0.07,0.025]},"primitives":[{"attributes":{"POSITION":11,"NORMAL":9},"indices":3,"mode":4,"material":2}]},{"name":"chevron_2_-1","extras":{"shape":"box","extents":[0.3,0.07,0.025]},"primitives":[{"attributes":{"POSITION":12,"NORMAL":7},"indices":3,"mode":4,"material":2}]},{"name":"chevron_2_1","extras":{"shape":"box","extents":[0.3,0.07,0.025]},"primitives":[{"attributes":{"POSITION":13,"NORMAL":9},"indices":3,"mode":4,"material":2}]},{"name":"tooth_0","extras":{"processed":true},"primitives":[{"attributes":{"POSITION":15,"NORMAL":16},"indices":14,"mode":4,"material":2}]},{"name":"tooth_1","extras":{"processed":true},"primitives":[{"attributes":{"POSITION":17,"NORMAL":18},"indices":14,"mode":4,"material":2}]},{"name":"tooth_2","extras":{"processed":true},"primitives":[{"attributes":{"POSITION":19,"NORMAL":16},"indices":14,"mode":4,"material":2}]},{"name":"tooth_3","extras":{"processed":true},"primitives":[{"attributes":{"POSITION":20,"NORMAL":16},"indices":14,"mode":4,"material":2}]},{"name":"tooth_4","extras":{"processed":true},"primitives":[{"attributes":{"POSITION":21,"NORMAL":16},"indices":14,"mode":4,"material":2}]},{"name":"tooth_5","extras":{"processed":true},"primitives":[{"attributes":{"POSITION":22,"NORMAL":16},"indices":14,"mode":4,"material":2}]},{"name":"lip_strip","extras":{"shape":"box","extents":[1.8,0.06,1.2]},"primitives":[{"attributes":{"POSITION":23,"NORMAL":5},"indices":3,"mode":4,"material":2}]},{"name":"hanger_r","extras":{"shape":"box","extents":[0.08,1.0,0.08]},"primitives":[{"attributes":{"POSITION":24,"NORMAL":5},"indices":3,"mode":4,"material":1}]},{"name":"hanger_l","extras":{"shape":"box","extents":[0.08,1.0,0.08]},"primitives":[{"attributes":{"POSITION":25,"NORMAL":5},"indices":3,"mode":4,"material":1}]}],"materials":[{"pbrMetallicRoughness":{"baseColorFactor":[0.050980392156862744,0.0392156862745098,0.10980392156862745,1.0],"roughnessFactor":0.75,"metallicFactor":0.0},"emissiveFactor":[0.0,0.0,0.0],"name":"MAT_Dark_Chassis","alphaMode":"OPAQUE","doubleSided":false},{"pbrMetallicRoughness":{"baseColorFactor":[0.2196078431372549,0.23137254901960785,0.2980392156862745,1.0],"roughnessFactor":0.4,"metallicFactor":0.75},"emissiveFactor":[0.0,0.0,0.0],"name":"MAT_Metal_Steel","alphaMode":"OPAQUE","doubleSided":false},{"pbrMetallicRoughness":{"baseColorFactor":[1.0,0.1803921568627451,0.45098039215686275,1.0],"roughnessFactor":0.35,"metallicFactor":0.0},"emissiveFactor":[1.0,0.18,0.45],"name":"MAT_Neon_Magenta","alphaMode":"OPAQUE","doubleSided":false}],"nodes":[{"name":"world","children":[1,2,3,4,5,6,7,8,9,10,11,12,13,14,15,16,17]},{"name":"body","mesh":0},{"name":"faceplate","mesh":1},{"name":"chevron_0_-1","mesh":2},{"name":"chevron_0_1","mesh":3},{"name":"chevron_1_-1","mesh":4},{"name":"chevron_1_1","mesh":5},{"name":"chevron_2_-1","mesh":6},{"name":"chevron_2_1","mesh":7},{"name":"tooth_0","mesh":8},{"name":"tooth_1","mesh":9},{"name":"tooth_2","mesh":10},{"name":"tooth_3","mesh":11},{"name":"tooth_4","mesh":12},{"name":"tooth_5","mesh":13},{"name":"lip_strip","mesh":14},{"name":"hanger_r","mesh":15},{"name":"hanger_l","mesh":16}],"buffers":[{"uri":"gltf_buffer.bin","byteLength":3048}],"bufferViews":[{"buffer":0,"byteOffset":0,"byteLength":528},{"buffer":0,"byteOffset":528,"byteLength":288},{"buffer":0,"byteOffset":816,"byteLength":288},{"buffer":0,"byteOffset":1104,"byteLength":144},{"buffer":0,"byteOffset":1248,"byteLength":96},{"buffer":0,"byteOffset":1344,"byteLength":96},{"buffer":0,"byteOffset":1440,"byteLength":96},{"buffer":0,"byteOffset":1536,"byteLength":96},{"buffer":0,"byteOffset":1632,"byteLength":96},{"buffer":0,"byteOffset":1728,"byteLength":96},{"buffer":0,"byteOffset":1824,"byteLength":96},{"buffer":0,"byteOffset":1920,"byteLength":96},{"buffer":0,"byteOffset":2016,"byteLength":96},{"buffer":0,"byteOffset":2112,"byteLength":96},{"buffer":0,"byteOffset":2208,"byteLength":72},{"buffer":0,"byteOffset":2280,"byteLength":60},{"buffer":0,"byteOffset":2340,"byteLength":60},{"buffer":0,"byteOffset":2400,"byteLength":60},{"buffer":0,"byteOffset":2460,"byteLength":60},{"buffer":0,"byteOffset":2520,"byteLength":60},{"buffer":0,"byteOffset":2580,"byteLength":60},{"buffer":0,"byteOffset":2640,"byteLength":60},{"buffer":0,"byteOffset":2700,"byteLength":60},{"buffer":0,"byteOffset":2760,"byteLength":96},{"buffer":0,"byteOffset":2856,"byteLength":96},{"buffer":0,"byteOffset":2952,"byteLength":96}]}