{"scene":0,"scenes":[{"nodes":[0]}],"asset":{"version":"2.0","generator":"https://github.com/mikedh/trimesh"},"accessors":[{"componentType":5125,"type":"SCALAR","bufferView":0,"count":132,"max":[23],"min":[0]},{"componentType":5126,"type":"VEC3","byteOffset":0,"bufferView":1,"count":24,"max":[0.8999999761581421,0.3499999940395355,0.5600000023841858],"min":[-0.8999999761581421,-0.3499999940395355,-0.6000000238418579]},{"componentType":5126,"count":24,"type":"VEC3","byteOffset":0,"bufferView":2,"max":[0.6998487710952759,0.6998487710952759,0.6998487710952759],"min":[-0.6998487710952759,-0.6998487710952759,-0.6998487710952759]},{"componentType":5125,"type":"SCALAR","bufferView":3,"count":36,"max":[7],"min":[0]},{"componentType":5126,"type":"VEC3","byteOffset":0,"bufferView":4,"count":8,"max":[0.8500000238418579,0.30000001192092896,0.5899999737739563],"min":[-0.8500000238418579,-0.30000001192092896,0.5600000023841858]},{"componentType":5126,"count":8,"type":"VEC3","byteOffset":0,"bufferView":5,"max":[0.5773502588272095,0.5773502588272095,0.5773502588272095],"min":[-0.5773502588272095,-0.5773502588272095,-0.5773502588272095]},{"componentType":5126,"type":"VEC3","byteOffset":0,"bufferView":6,"count":8,"max":[-0.46754810214042664,0.06781088560819626,0.6000000238418579],"min":[-0.7623557448387146,-0.1428108960390091,0.574999988079071]},{"componentType":5126,"count":8,"type":"VEC3","byteOffset":0,"bufferView":7,"max":[0.7886751294136047,0.7886751294136047,0.5773502588272095],"min":[-0.7886751294136047,-0.7886751294136047,-0.5773502588272095]},{"componentType":5126,"type":"VEC3","byteOffset":0,"bufferView":8,"count":8,"max":[-0.3376442790031433,0.06781088560819626,0.6000000238418579],"min":[-0.6324518918991089,-0.1428108960390091,0.574999988079071]},{"componentType":5126,"count":8,"type":"VEC3","byteOffset":0,"bufferView":9,"max":[0.7886751294136047,0.7886751294136047,0.5773502588272095],"min":[-0.7886751294136047,-0.7886751294136047,-0.5773502588272095]},{"componentType":5126,"type":"VEC3","byteOffset":0,"bufferView":10,"count":8,"max":[0.08245190232992172,0.06781088560819626,0.6000000238418579],"min":[-0.21235571801662445,-0.1428108960390091,0.574999988079071]},{"componentType":5126,"type":"VEC3","byteOffset":0,"bufferView":11,"count":8,"max":[0.21235571801662445,0.06781088560819626,0.6000000238418579],"min":[-0.08245190232992172,-0.1428108960390091,0.574999988079071]},{"componentType":5126,"type":"VEC3","byteOffset":0,"bufferView":12,"count":8,"max":[0.6324518918991089,0.06781088560819626,0.6000000238418579],"min":[0.3376442790031433,-0.1428108960390091,0.574999988079071]},{"componentType":5126,"type":"VEC3","byteOffset":0,"bufferView":13,"count":8,"max":[0.7623557448387146,0.06781088560819626,0.6000000238418579],"min":[0.46754810214042664,-0.1428108960390091,0.574999988079071]},{"componentType":5126,"type":"VEC3","byteOffset":0,"bufferView":14,"count":8,"max":[0.8999999761581421,0.3499999940395355,0.6000000238418579],"min":[-0.8999999761581421,0.3100000023841858,-0.6000000238418579]},{"componentType":5126,"type":"VEC3","byteOffset":0,"bufferView":15,"count":8,"max":[-0.8500000238418579,0.3499999940395355,0.6000000238418579],"min":[-0.8999999761581421,-0.3499999940395355,0.550000011920929]},{"componentType":5126,"type":"VEC3","byteOffset":0,"bufferView":16,"count":8,"max":[0.8999999761581421,0.3499999940395355,0.6000000238418579],"min":[0.8500000238418579,-0.3499999940395355,0.550000011920929]}],"meshes":[{"name":"body","extras":{"processed":true},"primitives":[{"attributes":{"POSITION":1,"NORMAL":2},"indices":0,"mode":4,"material":0}]},{"name":"faceplate","extras":{"shape":"box","extents":[1.7,0.6,0.03]},"primitives":[{"attributes":{"POSITION":4,"NORMAL":5},"indices":3,"mode":4,"material":1}]},{"name":"chevron_0_-1","extras":{"shape":"box","extents":[0.3,0.07,0.025]},"primitives":[{"attributes":{"POSITION":6,"NORMAL":7},"indices":3,"mode":4,"material":2}]},{"name":"chevron_0_1","extras":{"shape":"box","extents":[0.3,0.07,0.025]},"primitives":[{"attributes":{"POSITION":8,"NORMAL":9},"indices":3,"mode":4,"material":2}]},{"name":"chevron_1_-1","extras":{"shape":"box","extents":[0.3,0.07,0.025]},"primitives":[{"attributes":{"POSITION":10,"NORMAL":7},"indices":3,"mode":4,"material":2}]},{"name":"chevron_1_1","extras":{"shape":"box","extents":[0.3,0.07,0.025]},"primitives":[{"attributes":{"POSITION":11,"NORMAL":9},"indices":3,"mode":4,"material":2}]},{"name":"chevron_2_-1","extras":{"shape":"box","extents":[0.3,0.07,0.025]},"primitives":[{"attributes":{"POSITION":12,"NORMAL":7},"indices":3,"mode":4,"material":2}]},{"name":"chevron_2_1","extras":{"shape":"box","extents":[0.3,0.07,0.025]},"primitives":[{"attributes":{"POSITION":13,"NORMAL":9},"indices":3,"mode":4,"material":2}]},{"name":"top_strip","extras":{"shape":"box","extents":[1.8,0.04,1.2]},"primitives":[{"attributes":{"POSITION":14,"NORMAL":5},"indices":3,"mode":4,"material":2}]},{"name":"post_-1","extras":{"shape":"box","extents":[0.05,0.7,0.05]},"primitives":[{"attributes":{"POSITION":15,"NORMAL":5},"indices":3,"mode":4,"material":2}]},{"name":"post_1","extras":{"shape":"box","extents":[0.05,0.7,0.05]},"primitives":[{"attributes":{"POSITION":16,"NORMAL":5},"indices":3,"mode":4,"material":2}]}],"materials":[{"pbrMetallicRoughness":{"baseColorFactor":[0.050980392156862744,0.0392156862745098,0.10980392156862745,1.0],"roughnessFactor":0.75,"metallicFactor":0.0},"emissiveFactor":[0.0,0.0,0.0],"name":"MAT_Dark_Chassis","alphaMode":"OPAQUE","doubleSided":false},{"pbrMetallicRoughness":{"baseColorFactor":[0.2196078431372549,0.23137254901960785,0.2980392156862745,1.0],"roughnessFactor":0.4,"metallicFactor":0.75},"emissiveFactor":[0.0,0.0,0.0],"name":"MAT_Metal_Steel","alphaMode":"OPAQUE","doubleSided":false},{"pbrMetallicRoughness":{"baseColorFactor":[1.0,0.1803921568627451,0.45098039215686275,1.0],"roughnessFactor":0.35,"metallicFactor":0.0},"emissiveFactor":[1.0,0.18,0.45],"name":"MAT_Neon_Magenta","alphaMode":"OPAQUE","doubleSided":false}],"nodes":[{"name":"world","children":[1,2,3,4,5,6,7,8,9,10,11]},{"name":"body","mesh":0},{"name":"faceplate","mesh":1},{"name":"chevron_0_-1","mesh":2},{"name":"chevron_0_1","mesh":3},{"name":"chevron_1_-1","mesh":4},{"name":"chevron_1_1","mesh":5},{"name":"chevron_2_-1","mesh":6},{"name":"chevron_2_1","mesh":7},{"name":"top_strip","mesh":8},{"name":"post_-1","mesh":9},{"name":"post_1","mesh":10}],"buffers":[{"uri":"gltf_buffer.bin","byteLength":2496}],"bufferViews":[{"buffer":0,"byteOffset":0,"byteLength":528},{"buffer":0,"byteOffset":528,"byteLength":288},{"buffer":0,"byteOffset":816,"byteLength":288},{"buffer":0,"byteOffset":1104,"byteLength":144},{"buffer":0,"byteOffset":1248,"byteLength":96},{"buffer":0,"byteOffset":1344,"byteLength":96},{"buffer":0,"byteOffset":1440,"byteLength":96},{"buffer":0,"byteOffset":1536,"byteLength":96},{"buffer":0,"byteOffset":1632,"byteLength":96},{"buffer":0,"byteOffset":1728,"byteLength":96},{"buffer":0,"byteOffset":1824,"byteLength":96},{"buffer":0,"byteOffset":1920,"byteLength":96},{"buffer":0,"byteOffset":2016,"byteLength":96},{"buffer":0,"byteOffset":2112,"byteLength":96},{"buffer":0,"byteOffset":2208,"byteLength":96},{"buffer":0,"byteOffset":2304,"byteLength":96},{"buffer":0,"byteOffset":2400,"byteLength":96}]}