{"scene":0,"scenes":[{"nodes":[0]}],"asset":{"version":"2.0","generator":"https://github.com/mikedh/trimesh"},"accessors":[{"componentType":5125,"type":"SCALAR","bufferView":0,"count":132,"max":[23],"min":[0]},{"componentType":5126,"type":"VEC3","byteOffset":0,"bufferView":1,"count":24,"max":[0.8999999761581421,0.800000011920929,0.5600000023841858],"min":[-0.8999999761581421,-0.800000011920929,-0.6000000238418579]},{"componentType":5126,"count":24,"type":"VEC3","byteOffset":0,"bufferView":2,"max":[0.6998487710952759,0.6998487710952759,0.6998487710952759],"min":[-0.6998487710952759,-0.6998487710952759,-0.6998487710952759]},{"componentType":5125,"type":"SCALAR","bufferView":3,"count":36,"max":[7],"min":[0]},{"componentType":5126,"type":"VEC3","byteOffset":0,"bufferView":4,"count":8,"max":[0.8600000143051147,0.7599999904632568,0.5899999737739563],"min":[-0.8600000143051147,-0.7599999904632568,0.5600000023841858]},{"componentType":5126,"count":8,"type":"VEC3","byteOffset":0,"bufferView":5,"max":[0.5773502588272095,0.5773502588272095,0.5773502588272095],"min":[-0.5773502588272095,-0.5773502588272095,-0.5773502588272095]},{"componentType":5126,"type":"VEC3","byteOffset":0,"bufferView":6,"count":8,"max":[0.8799999952316284,-0.4699999988079071,0.6000000238418579],"min":[-0.8799999952316284,-0.5299999713897705,0.574999988079071]},{"componentType":5126,"type":"VEC3","byteOffset":0,"bufferView":7,"count":8,"max":[0.8799999952316284,0.029999999329447746,0.6000000238418579],"min":[-0.8799999952316284,-0.029999999329447746,0.574999988079071]},{"componentType":5126,"type":"VEC3","byteOffset":0,"bufferView":8,"count":8,"max":[0.8799999952316284,0.5299999713897705,0.6000000238418579],"min":[-0.8799999952316284,0.4699999988079071,0.574999988079071]},{"componentType":5126,"type":"VEC3","byteOffset":0,"bufferView":9,"count":8,"max":[-0.41999998688697815,0.7599999904632568,0.6000000238418579],"min":[-0.47999998927116394,-0.7599999904632568,0.574999988079071]},{"componentType":5126,"type":"VEC3","byteOffset":0,"bufferView":10,"count":8,"max":[0.47999998927116394,0.7599999904632568,0.6000000238418579],"min":[0.41999998688697815,-0.7599999904632568,0.574999988079071]},{"componentType":5125,"type":"SCALAR","bufferView":11,"count":24,"max":[5],"min":[0]},{"componentType":5126,"type":"VEC3","byteOffset":0,"bufferView":12,"count":6,"max":[-0.5099999904632568,0.46000000834465027,0.6000000238418579],"min":[-0.8100000023841858,0.03999999910593033,0.574999988079071]},{"componentType":5126,"count":6,"type":"VEC3","byteOffset":0,"bufferView":13,"max":[0.8277003169059753,0.7396873831748962,0.5611703395843506],"min":[-0.3851223587989807,-0.7396873831748962,-0.5611703395843506]},{"componentType":5126,"type":"VEC3","byteOffset":0,"bufferView":14,"count":6,"max":[0.8100000023841858,0.46000000834465027,0.6000000238418579],"min":[0.5099999904632568,0.03999999910593033,0.574999988079071]},{"componentType":5126,"count":6,"type":"VEC3","byteOffset":0,"bufferView":15,"max":[0.8277003169059753,0.7396873831748962,0.5611703395843506],"min":[-0.3851223587989807,-0.7396873831748962,-0.5611703395843506]},{"componentType":5126,"type":"VEC3","byteOffset":0,"bufferView":16,"count":8,"max":[0.8999999761581421,0.800000011920929,0.6000000238418579],"min":[-0.8999999761581421,0.75,-0.6000000238418579]}],"meshes":[{"name":"body","extras":{"processed":true},"primitives":[{"attributes":{"POSITION":1,"NORMAL":2},"indices":0,"mode":4,"material":0}]},{"name":"faceplate","extras":{"shape":"box","extents":[1.72,1.52,0.03]},"primitives":[{"attributes":{"POSITION":4,"NORMAL":5},"indices":3,"mode":4,"material":1}]},{"name":"rib_0","extras":{"shape":"box","extents":[1.76,0.06,0.025]},"primitives":[{"attributes":{"POSITION":6,"NORMAL":5},"indices":3,"mode":4,"material":2}]},{"name":"rib_1","extras":{"shape":"box","extents":[1.76,0.06,0.025]},"primitives":[{"attributes":{"POSITION":7,"NORMAL":5},"indices":3,"mode":4,"material":2}]},{"name":"rib_2","extras":{"shape":"box","extents":[1.76,0.06,0.025]},"primitives":[{"attributes":{"POSITION":8,"NORMAL":5},"indices":3,"mode":4,"material":2}]},{"name":"stile_0","extras":{"shape":"box","extents":[0.06,1.52,0.025]},"primitives":[{"attributes":{"POSITION":9,"NORMAL":5},"indices":3,"mode":4,"material":2}]},{"name":"stile_1","extras":{"shape":"box","extents":[0.06,1.52,0.025]},"primitives":[{"attributes":{"POSITION":10,"NORMAL":5},"indices":3,"mode":4,"material":2}]},{"name":"arrow_-1","extras":{"processed":true},"primitives":[{"attributes":{"POSITION":12,"NORMAL":13},"indices":11,"mode":4,"material":2}]},{"name":"arrow_1","extras":{"processed":true},"primitives":[{"attributes":{"POSITION":14,"NORMAL":15},"indices":11,"mode":4,"material":2}]},{"name":"cap_strip","extras":{"shape":"box","extents":[1.8,0.05,1.2]},"primitives":[{"attributes":{"POSITION":16,"NORMAL":5},"indices":3,"mode":4,"material":2}]}],"materials":[{"pbrMetallicRoughness":{"baseColorFactor":[0.050980392156862744,0.0392156862745098,0.10980392156862745,1.0],"roughnessFactor":0.75,"metallicFactor":0.0},"emissiveFactor":[0.0,0.0,0.0],"name":"MAT_Dark_Chassis","alphaMode":"OPAQUE","doubleSided":false},{"pbrMetallicRoughness":{"baseColorFactor":[0.2196078431372549,0.23137254901960785,0.2980392156862745,1.0],"roughnessFactor":0.4,"metallicFactor":0.75},"emissiveFactor":[0.0,0.0,0.0],"name":"MAT_Metal_Steel","alphaMode":"OPAQUE","doubleSided":false},{"pbrMetallicRoughness":{"baseColorFactor":[1.0,0.1803921568627451,0.45098039215686275,1.0],"roughnessFactor":0.35,"metallicFactor":0.0},"emissiveFactor":[1.0,0.18,0.45],"name":"MAT_Neon_Magenta","alphaMode":"OPAQUE","doubleSided":false}],"nodes":[{"name":"world","children":[1,2,3,4,5,6,7,8,9,10]},{"name":"body","mesh":0},{"name":"faceplate","mesh":1},{"name":"rib_0","mesh":2},{"name":"rib_1","mesh":3},{"name":"rib_2","mesh":4},{"name":"stile_0","mesh":5},{"name":"stile_1","mesh":6},{"name":"arrow_-1","mesh":7},{"name":"arrow_1","mesh":8},{"name":"cap_strip","mesh":9}],"buffers":[{"uri":"gltf_buffer.bin","byteLength":2400}],"bufferViews":[{"buffer":0,"byteOffset":0,"byteLength":528},{"buffer":0,"byteOffset":528,"byteLength":288},{"buffer":0,"byteOffset":816,"byteLength":288},{"buffer":0,"byteOffset":1104,"byteLength":144},{"buffer":0,"byteOffset":1248,"byteLength":96},{"buffer":0,"byteOffset":1344,"byteLength":96},{"buffer":0,"byteOffset":1440,"byteLength":96},{"buffer":0,"byteOffset":1536,"byteLength":96},{"buffer":0,"byteOffset":1632,"byteLength":96},{"buffer":0,"byteOffset":1728,"byteLength":96},{"buffer":0,"byteOffset":1824,"byteLength":96},{"buffer":0,"byteOffset":1920,"byteLength":96},{"buffer":0,"byteOffset":2016,"byteLength":72},{"buffer":0,"byteOffset":2088,"byteLength":72},{"buffer":0,"byteOffset":2160,"byteLength":72},{"buffer":0,"byteOffset":2232,"byteLength":72},{"buffer":0,"byteOffset":2304,"byteLength":96}]}