{"scene":0,"scenes":[{"nodes":[0]}],"asset":{"version":"2.0","generator":"https://github.com/mikedh/trimesh"},"accessors":[{"componentType":5125,"type":"SCALAR","bufferView":0,"count":36,"max":[7],"min":[0]},{"componentType":5126,"type":"VEC3","byteOffset":0,"bufferView":1,"count":8,"max":[1.899999976158142,15.0,1.7999999523162842],"min":[-1.899999976158142,0.0,-1.7999999523162842]},{"componentType":5126,"type":"VEC2","byteOffset":0,"bufferView":5,"count":8,"max":[0.4749999940395355,1.0],"min":[-0.4749999940395355,-2.75]},{"componentType":5126,"count":8,"type":"VEC3","byteOffset":0,"bufferView":6,"max":[0.5773502588272095,0.5773502588272095,0.5773502588272095],"min":[-0.5773502588272095,-0.5773502588272095,-0.5773502588272095]},{"componentType":5126,"type":"VEC3","byteOffset":0,"bufferView":7,"count":8,"max":[1.975000023841858,15.154999732971191,1.875],"min":[-1.975000023841858,15.005000114440918,-1.875]},{"componentType":5126,"type":"VEC3","byteOffset":0,"bufferView":8,"count":8,"max":[2.0899999141693115,14.399999618530273,-1.7999999523162842],"min":[1.7100000381469727,0.6000000238418579,-1.8600000143051147]}],"meshes":[{"name":"body","extras":{"shape":"box","extents":[3.8,15.0,3.6]},"primitives":[{"attributes":{"POSITION":1,"TEXCOORD_0":2,"NORMAL":3},"indices":0,"mode":4,"material":0}]},{"name":"crown","extras":{"shape":"box","extents":[3.9499999999999997,0.15,3.75]},"primitives":[{"attributes":{"POSITION":4,"NORMAL":3},"indices":0,"mode":4,"material":1}]},{"name":"edge_light","extras":{"shape":"box","extents":[0.38,13.8,0.06]},"primitives":[{"attributes":{"POSITION":5,"NORMAL":3},"indices":0,"mode":4,"material":1}]}],"images":[{"bufferView":2,"mimeType":"image/png"},{"bufferView":3,"mimeType":"image/png"},{"bufferView":4,"mimeType":"image/png"}],"textures":[{"source":0},{"source":1},{"source":2}],"materials":[{"pbrMetallicRoughness":{"baseColorTexture":{"index":0},"baseColorFactor":[0.050980392156862744,0.0392156862745098,0.10980392156862745,1.0],"roughnessFactor":0.6,"metallicFactor":0.0,"metallicRoughnessTexture":{"index":2}},"emissiveFactor":[1.0,1.0,1.0],"name":"MAT_Facade_Lit","alphaMode":"OPAQUE","doubleSided":false,"emissiveTexture":{"index":1}},{"pbrMetallicRoughness":{"baseColorFactor":[1.0,0.25098039215686274,0.7490196078431373,1.0],"roughnessFactor":0.35,"metallicFactor":0.0},"emissiveFactor":[1.0,0.25,0.75],"name":"MAT_Neon_Pink","alphaMode":"OPAQUE","doubleSided":false}],"nodes":[{"name":"world","children":[1,2,3]},{"name":"body","mesh":0},{"name":"crown","mesh":1},{"name":"edge_light","mesh":2}],"buffers":[{"uri":"gltf_buffer.bin","byteLength":7296}],"bufferViews":[{"buffer":0,"byteOffset":0,"byteLength":144},{"buffer":0,"byteOffset":144,"byteLength":96},{"buffer":0,"byteOffset":240,"byteLength":2848},{"buffer":0,"byteOffset":3088,"byteLength":1976},{"buffer":0,"byteOffset":5064,"byteLength":1880},{"buffer":0,"byteOffset":6944,"byteLength":64},{"buffer":0,"byteOffset":7008,"byteLength":96},{"buffer":0,"byteOffset":7104,"byteLength":96},{"buffer":0,"byteOffset":7200,"byteLength":96}]}