{"scene":0,"scenes":[{"nodes":[0]}],"asset":{"version":"2.0","generator":"https://github.com/mikedh/trimesh"},"accessors":[{"componentType":5125,"type":"SCALAR","bufferView":0,"count":36,"max":[7],"min":[0]},{"componentType":5126,"type":"VEC3","byteOffset":0,"bufferView":1,"count":8,"max":[1.5750000476837158,0.07500000298023224,1.6749999523162842],"min":[-1.5750000476837158,-0.07500000298023224,-1.6749999523162842]},{"componentType":5126,"count":8,"type":"VEC3","byteOffset":0,"bufferView":2,"max":[0.5773502588272095,0.5773502588272095,0.5773502588272095],"min":[-0.5773502588272095,-0.5773502588272095,-0.5773502588272095]}],"meshes":[{"name":"strip","extras":{"shape":"box","extents":[3.15,0.15,3.35]},"primitives":[{"attributes":{"POSITION":1,"NORMAL":2},"indices":0,"mode":4,"material":0}]}],"materials":[{"pbrMetallicRoughness":{"baseColorFactor":[0.2,1.0,0.8509803921568627,1.0],"roughnessFactor":0.35,"metallicFactor":0.0},"emissiveFactor":[0.2,1.0,0.85],"name":"MAT_Neon_Cyan","alphaMode":"OPAQUE","doubleSided":false}],"nodes":[{"name":"world","children":[1]},{"name":"strip","mesh":0}],"buffers":[{"uri":"gltf_buffer.bin","byteLength":336}],"bufferViews":[{"buffer":0,"byteOffset":0,"byteLength":144},{"buffer":0,"byteOffset":144,"byteLength":96},{"buffer":0,"byteOffset":240,"byteLength":96}]}