{"scene":0,"scenes":[{"nodes":[0]}],"asset":{"version":"2.0","generator":"https://github.com/mikedh/trimesh"},"accessors":[{"componentType":5125,"type":"SCALAR","bufferView":0,"count":36,"max":[7],"min":[0]},{"componentType":5126,"type":"VEC3","byteOffset":0,"bufferView":1,"count":8,"max":[-4.625,5.400000095367432,0.30000001192092896],"min":[-5.074999809265137,0.0,-0.30000001192092896]},{"componentType":5126,"count":8,"type":"VEC3","byteOffset":0,"bufferView":2,"max":[0.5773502588272095,0.5773502588272095,0.5773502588272095],"min":[-0.5773502588272095,-0.5773502588272095,-0.5773502588272095]},{"componentType":5126,"type":"VEC3","byteOffset":0,"bufferView":3,"count":8,"max":[-4.539999961853027,5.199999809265137,-0.27000001072883606],"min":[-4.679999828338623,0.20000000298023224,-0.3700000047683716]},{"componentType":5126,"type":"VEC3","byteOffset":0,"bufferView":4,"count":8,"max":[5.074999809265137,5.400000095367432,0.30000001192092896],"min":[4.625,0.0,-0.30000001192092896]},{"componentType":5126,"type":"VEC3","byteOffset":0,"bufferView":5,"count":8,"max":[4.679999828338623,5.199999809265137,-0.27000001072883606],"min":[4.539999961853027,0.20000000298023224,-0.3700000047683716]},{"componentType":5126,"type":"VEC3","byteOffset":0,"bufferView":6,"count":8,"max":[5.300000190734863,6.0,0.30000001192092896],"min":[-5.300000190734863,5.400000095367432,-0.30000001192092896]},{"componentType":5126,"type":"VEC3","byteOffset":0,"bufferView":7,"count":8,"max":[5.300000190734863,5.489999771118164,-0.27000001072883606],"min":[-5.300000190734863,5.349999904632568,-0.3700000047683716]},{"componentType":5126,"type":"VEC3","byteOffset":0,"bufferView":8,"count":8,"max":[5.300000190734863,6.050000190734863,-0.27000001072883606],"min":[-5.300000190734863,5.909999847412109,-0.3700000047683716]}],"meshes":[{"name":"pillar_-1","extras":{"shape":"box","extents":[0.45,5.4,0.6]},"primitives":[{"attributes":{"POSITION":1,"NORMAL":2},"indices":0,"mode":4,"material":0}]},{"name":"pillar_light_-1","extras":{"shape":"box","extents":[0.14,5.0,0.1]},"primitives":[{"attributes":{"POSITION":3,"NORMAL":2},"indices":0,"mode":4,"material":1}]},{"name":"pillar_1","extras":{"shape":"box","extents":[0.45,5.4,0.6]},"primitives":[{"attributes":{"POSITION":4,"NORMAL":2},"indices":0,"mode":4,"material":0}]},{"name":"pillar_light_1","extras":{"shape":"box","extents":[0.14,5.0,0.1]},"primitives":[{"attributes":{"POSITION":5,"NORMAL":2},"indices":0,"mode":4,"material":1}]},{"name":"lintel","extras":{"shape":"box","extents":[10.6,0.6,0.6]},"primitives":[{"attributes":{"POSITION":6,"NORMAL":2},"indices":0,"mode":4,"material":0}]},{"name":"lintel_light_lo","extras":{"shape":"box","extents":[10.6,0.14,0.1]},"primitives":[{"attributes":{"POSITION":7,"NORMAL":2},"indices":0,"mode":4,"material":2}]},{"name":"lintel_light_hi","extras":{"shape":"box","extents":[10.6,0.14,0.1]},"primitives":[{"attributes":{"POSITION":8,"NORMAL":2},"indices":0,"mode":4,"material":2}]}],"materials":[{"pbrMetallicRoughness":{"baseColorFactor":[0.050980392156862744,0.0392156862745098,0.10980392156862745,1.0],"roughnessFactor":0.75,"metallicFactor":0.0},"emissiveFactor":[0.0,0.0,0.0],"name":"MAT_Dark_Chassis","alphaMode":"OPAQUE","doubleSided":false},{"pbrMetallicRoughness":{"baseColorFactor":[0.2,1.0,0.8509803921568627,1.0],"roughnessFactor":0.35,"metallicFactor":0.0},"emissiveFactor":[0.2,1.0,0.85],"name":"MAT_Neon_Cyan","alphaMode":"OPAQUE","doubleSided":false},{"pbrMetallicRoughness":{"baseColorFactor":[1.0,0.1803921568627451,0.45098039215686275,1.0],"roughnessFactor":0.35,"metallicFactor":0.0},"emissiveFactor":[1.0,0.18,0.45],"name":"MAT_Neon_Magenta","alphaMode":"OPAQUE","doubleSided":false}],"nodes":[{"name":"world","children":[1,2,3,4,5,6,7]},{"name":"pillar_-1","mesh":0},{"name":"pillar_light_-1","mesh":1},{"name":"pillar_1","mesh":2},{"name":"pillar_light_1","mesh":3},{"name":"lintel","mesh":4},{"name":"lintel_light_lo","mesh":5},{"name":"lintel_light_hi","mesh":6}],"buffers":[{"uri":"gltf_buffer.bin","byteLength":912}],"bufferViews":[{"buffer":0,"byteOffset":0,"byteLength":144},{"buffer":0,"byteOffset":144,"byteLength":96},{"buffer":0,"byteOffset":240,"byteLength":96},{"buffer":0,"byteOffset":336,"byteLength":96},{"buffer":0,"byteOffset":432,"byteLength":96},{"buffer":0,"byteOffset":528,"byteLength":96},{"buffer":0,"byteOffset":624,"byteLength":96},{"buffer":0,"byteOffset":720,"byteLength":96},{"buffer":0,"byteOffset":816,"byteLength":96}]}