{"scene":0,"scenes":[{"nodes":[0]}],"asset":{"version":"2.0","generator":"https://github.com/mikedh/trimesh"},"accessors":[{"componentType":5125,"type":"SCALAR","bufferView":0,"count":36,"max":[7],"min":[0]},{"componentType":5126,"type":"VEC3","byteOffset":0,"bufferView":1,"count":8,"max":[0.10999999940395355,4.199999809265137,0.10999999940395355],"min":[-0.10999999940395355,0.0,-0.10999999940395355]},{"componentType":5126,"count":8,"type":"VEC3","byteOffset":0,"bufferView":2,"max":[0.5773502588272095,0.5773502588272095,0.5773502588272095],"min":[-0.5773502588272095,-0.5773502588272095,-0.5773502588272095]},{"componentType":5126,"type":"VEC3","byteOffset":0,"bufferView":3,"count":8,"max":[1.7000000476837158,6.050000190734863,0.05000000074505806],"min":[-1.7000000476837158,4.150000095367432,-0.05000000074505806]},{"componentType":5126,"type":"VEC3","byteOffset":0,"bufferView":4,"count":8,"max":[1.7999999523162842,6.170000076293945,0.07999999821186066],"min":[-1.7999999523162842,6.050000190734863,-0.07999999821186066]},{"componentType":5126,"type":"VEC3","byteOffset":0,"bufferView":5,"count":8,"max":[1.7999999523162842,4.150000095367432,0.07999999821186066],"min":[-1.7999999523162842,4.03000020980835,-0.07999999821186066]},{"componentType":5126,"type":"VEC3","byteOffset":0,"bufferView":6,"count":8,"max":[-1.6799999475479126,6.170000076293945,0.07999999821186066],"min":[-1.7999999523162842,4.03000020980835,-0.07999999821186066]},{"componentType":5126,"type":"VEC3","byteOffset":0,"bufferView":7,"count":8,"max":[1.7999999523162842,6.170000076293945,0.07999999821186066],"min":[1.6799999475479126,4.03000020980835,-0.07999999821186066]},{"componentType":5126,"type":"VEC3","byteOffset":0,"bufferView":8,"count":8,"max":[1.2999999523162842,4.670000076293945,-0.05000000074505806],"min":[-1.2999999523162842,4.53000020980835,-0.10999999940395355]},{"componentType":5126,"type":"VEC3","byteOffset":0,"bufferView":9,"count":8,"max":[1.2999999523162842,5.170000076293945,-0.05000000074505806],"min":[-1.2999999523162842,5.03000020980835,-0.10999999940395355]},{"componentType":5126,"type":"VEC3","byteOffset":0,"bufferView":10,"count":8,"max":[1.2999999523162842,5.670000076293945,-0.05000000074505806],"min":[-1.2999999523162842,5.53000020980835,-0.10999999940395355]}],"meshes":[{"name":"post","extras":{"shape":"box","extents":[0.22,4.2,0.22]},"primitives":[{"attributes":{"POSITION":1,"NORMAL":2},"indices":0,"mode":4,"material":0}]},{"name":"panel","extras":{"shape":"box","extents":[3.4,1.9,0.1]},"primitives":[{"attributes":{"POSITION":3,"NORMAL":2},"indices":0,"mode":4,"material":0}]},{"name":"frame_top","extras":{"shape":"box","extents":[3.6,0.12,0.16]},"primitives":[{"attributes":{"POSITION":4,"NORMAL":2},"indices":0,"mode":4,"material":1}]},{"name":"frame_bottom","extras":{"shape":"box","extents":[3.6,0.12,0.16]},"primitives":[{"attributes":{"POSITION":5,"NORMAL":2},"indices":0,"mode":4,"material":1}]},{"name":"frame_side_-1","extras":{"shape":"box","extents":[0.12,2.14,0.16]},"primitives":[{"attributes":{"POSITION":6,"NORMAL":2},"indices":0,"mode":4,"material":1}]},{"name":"frame_side_1","extras":{"shape":"box","extents":[0.12,2.14,0.16]},"primitives":[{"attributes":{"POSITION":7,"NORMAL":2},"indices":0,"mode":4,"material":1}]},{"name":"glyph_0","extras":{"shape":"box","extents":[2.6,0.14,0.06]},"primitives":[{"attributes":{"POSITION":8,"NORMAL":2},"indices":0,"mode":4,"material":2}]},{"name":"glyph_1","extras":{"shape":"box","extents":[2.6,0.14,0.06]},"primitives":[{"attributes":{"POSITION":9,"NORMAL":2},"indices":0,"mode":4,"material":2}]},{"name":"glyph_2","extras":{"shape":"box","extents":[2.6,0.14,0.06]},"primitives":[{"attributes":{"POSITION":10,"NORMAL":2},"indices":0,"mode":4,"material":2}]}],"materials":[{"pbrMetallicRoughness":{"baseColorFactor":[0.050980392156862744,0.0392156862745098,0.10980392156862745,1.0],"roughnessFactor":0.75,"metallicFactor":0.0},"emissiveFactor":[0.0,0.0,0.0],"name":"MAT_Dark_Chassis","alphaMode":"OPAQUE","doubleSided":false},{"pbrMetallicRoughness":{"baseColorFactor":[1.0,0.25098039215686274,0.7490196078431373,1.0],"roughnessFactor":0.35,"metallicFactor":0.0},"emissiveFactor":[1.0,0.25,0.75],"name":"MAT_Neon_Pink","alphaMode":"OPAQUE","doubleSided":false},{"pbrMetallicRoughness":{"baseColorFactor":[0.2,1.0,0.8509803921568627,1.0],"roughnessFactor":0.35,"metallicFactor":0.0},"emissiveFactor":[0.2,1.0,0.85],"name":"MAT_Neon_Cyan","alphaMode":"OPAQUE","doubleSided":false}],"nodes":[{"name":"world","children":[1,2,3,4,5,6,7,8,9]},{"name":"post","mesh":0},{"name":"panel","mesh":1},{"name":"frame_top","mesh":2},{"name":"frame_bottom","mesh":3},{"name":"frame_side_-1","mesh":4},{"name":"frame_side_1","mesh":5},{"name":"glyph_0","mesh":6},{"name":"glyph_1","mesh":7},{"name":"glyph_2","mesh":8}],"buffers":[{"uri":"gltf_buffer.bin","byteLength":1104}],"bufferViews":[{"buffer":0,"byteOffset":0,"byteLength":144},{"buffer":0,"byteOffset":144,"byteLength":96},{"buffer":0,"byteOffset":240,"byteLength":96},{"buffer":0,"byteOffset":336,"byteLength":96},{"buffer":0,"byteOffset":432,"byteLength":96},{"buffer":0,"byteOffset":528,"byteLength":96},{"buffer":0,"byteOffset":624,"byteLength":96},{"buffer":0,"byteOffset":720,"byteLength":96},{"buffer":0,"byteOffset":816,"byteLength":96},{"buffer":0,"byteOffset":912,"byteLength":96},{"buffer":0,"byteOffset":1008,"byteLength":96}]}