{"scene":0,"scenes":[{"nodes":[0]}],"asset":{"version":"2.0","generator":"https://github.com/mikedh/trimesh"},"accessors":[{"componentType":5125,"type":"SCALAR","bufferView":0,"count":36,"max":[7],"min":[0]},{"componentType":5126,"type":"VEC3","byteOffset":0,"bufferView":1,"count":8,"max":[2.299999952316284,24.0,2.0],"min":[-2.299999952316284,0.0,-2.0]},{"componentType":5126,"type":"VEC2","byteOffset":0,"bufferView":5,"count":8,"max":[0.574999988079071,1.0],"min":[-0.574999988079071,-5.0]},{"componentType":5126,"count":8,"type":"VEC3","byteOffset":0,"bufferView":6,"max":[0.5773502588272095,0.5773502588272095,0.5773502588272095],"min":[-0.5773502588272095,-0.5773502588272095,-0.5773502588272095]},{"componentType":5126,"type":"VEC3","byteOffset":0,"bufferView":7,"count":8,"max":[2.375,24.155000686645508,2.075000047683716],"min":[-2.375,24.0049991607666,-2.075000047683716]},{"componentType":5126,"type":"VEC3","byteOffset":0,"bufferView":8,"count":8,"max":[2.5299999713897705,23.040000915527344,-2.0],"min":[2.069999933242798,0.9599999785423279,-2.059999942779541]}],"meshes":[{"name":"body","extras":{"shape":"box","extents":[4.6,24.0,4.0]},"primitives":[{"attributes":{"POSITION":1,"TEXCOORD_0":2,"NORMAL":3},"indices":0,"mode":4,"material":0}]},{"name":"crown","extras":{"shape":"box","extents":[4.75,0.15,4.15]},"primitives":[{"attributes":{"POSITION":4,"NORMAL":3},"indices":0,"mode":4,"material":1}]},{"name":"edge_light","extras":{"shape":"box","extents":[0.45999999999999996,22.080000000000002,0.06]},"primitives":[{"attributes":{"POSITION":5,"NORMAL":3},"indices":0,"mode":4,"material":1}]}],"images":[{"bufferView":2,"mimeType":"image/png"},{"bufferView":3,"mimeType":"image/png"},{"bufferView":4,"mimeType":"image/png"}],"textures":[{"source":0},{"source":1},{"source":2}],"materials":[{"pbrMetallicRoughness":{"baseColorTexture":{"index":0},"baseColorFactor":[0.050980392156862744,0.0392156862745098,0.10980392156862745,1.0],"roughnessFactor":0.6,"metallicFactor":0.0,"metallicRoughnessTexture":{"index":2}},"emissiveFactor":[1.0,1.0,1.0],"name":"MAT_Facade_Lit","alphaMode":"OPAQUE","doubleSided":false,"emissiveTexture":{"index":1}},{"pbrMetallicRoughness":{"baseColorFactor":[0.5490196078431373,0.34901960784313724,1.0,1.0],"roughnessFactor":0.35,"metallicFactor":0.0},"emissiveFactor":[0.55,0.35,1.0],"name":"MAT_Neon_Lilac","alphaMode":"OPAQUE","doubleSided":false}],"nodes":[{"name":"world","children":[1,2,3]},{"name":"body","mesh":0},{"name":"crown","mesh":1},{"name":"edge_light","mesh":2}],"buffers":[{"uri":"gltf_buffer.bin","byteLength":7296}],"bufferViews":[{"buffer":0,"byteOffset":0,"byteLength":144},{"buffer":0,"byteOffset":144,"byteLength":96},{"buffer":0,"byteOffset":240,"byteLength":2848},{"buffer":0,"byteOffset":3088,"byteLength":1976},{"buffer":0,"byteOffset":5064,"byteLength":1880},{"buffer":0,"byteOffset":6944,"byteLength":64},{"buffer":0,"byteOffset":7008,"byteLength":96},{"buffer":0,"byteOffset":7104,"byteLength":96},{"buffer":0,"byteOffset":7200,"byteLength":96}]}