{"scene":0,"scenes":[{"nodes":[0]}],"asset":{"version":"2.0","generator":"https://github.com/mikedh/trimesh"},"accessors":[{"componentType":5125,"type":"SCALAR","bufferView":0,"count":132,"max":[23],"min":[0]},{"componentType":5126,"type":"VEC3","byteOffset":0,"bufferView":1,"count":24,"max":[0.25,0.11999999731779099,0.14000000059604645],"min":[0.009999999776482582,0.0,-0.20000000298023224]},{"componentType":5126,"count":24,"type":"VEC3","byteOffset":0,"bufferView":2,"max":[0.6998487710952759,0.6998487710952759,0.6998487710952759],"min":[-0.6998487710952759,-0.6998487710952759,-0.6998487710952759]},{"componentType":5126,"type":"VEC3","byteOffset":0,"bufferView":3,"count":24,"max":[-0.009999999776482582,0.11999999731779099,0.14000000059604645],"min":[-0.25,0.0,-0.20000000298023224]},{"componentType":5126,"count":24,"type":"VEC3","byteOffset":0,"bufferView":4,"max":[0.6998487710952759,0.6998487710952759,0.6998487710952759],"min":[-0.6998487710952759,-0.6998487710952759,-0.6998487710952759]},{"componentType":5125,"type":"SCALAR","bufferView":5,"count":132,"max":[23],"min":[0]},{"componentType":5126,"type":"VEC3","byteOffset":0,"bufferView":6,"count":24,"max":[0.2199999988079071,0.5299999713897705,0.07999999821186066],"min":[0.03999999910593033,0.10999999940395355,-0.07999999821186066]},{"componentType":5126,"type":"VEC3","byteOffset":0,"bufferView":7,"count":24,"max":[-0.03999999910593033,0.5299999713897705,0.07999999821186066],"min":[-0.2199999988079071,0.10999999940395355,-0.07999999821186066]},{"componentType":5126,"type":"VEC3","byteOffset":0,"bufferView":8,"count":24,"max":[0.2540000081062317,0.8899999856948853,0.10000000149011612],"min":[0.026000000536441803,0.550000011920929,-0.10000000149011612]},{"componentType":5126,"type":"VEC3","byteOffset":0,"bufferView":9,"count":24,"max":[-0.026000000536441803,0.8899999856948853,0.10000000149011612],"min":[-0.2540000081062317,0.550000011920929,-0.10000000149011612]},{"componentType":5125,"type":"SCALAR","bufferView":10,"count":36,"max":[7],"min":[0]},{"componentType":5126,"type":"VEC3","byteOffset":0,"bufferView":11,"count":8,"max":[0.23199999332427979,0.5525000095367432,0.09000000357627869],"min":[0.02800000086426735,0.5174999833106995,-0.09000000357627869]},{"componentType":5126,"count":8,"type":"VEC3","byteOffset":0,"bufferView":12,"max":[0.5773502588272095,0.5773502588272095,0.5773502588272095],"min":[-0.5773502588272095,-0.5773502588272095,-0.5773502588272095]},{"componentType":5126,"type":"VEC3","byteOffset":0,"bufferView":13,"count":8,"max":[-0.02800000086426735,0.5525000095367432,0.09000000357627869],"min":[-0.23199999332427979,0.5174999833106995,-0.09000000357627869]},{"componentType":5126,"count":8,"type":"VEC3","byteOffset":0,"bufferView":14,"max":[0.5773502588272095,0.5773502588272095,0.5773502588272095],"min":[-0.5773502588272095,-0.5773502588272095,-0.5773502588272095]},{"componentType":5125,"type":"SCALAR","bufferView":15,"count":132,"max":[23],"min":[0]},{"componentType":5126,"type":"VEC3","byteOffset":0,"bufferView":16,"count":24,"max":[0.23999999463558197,1.0299999713897705,0.11999999731779099],"min":[-0.23999999463558197,0.8700000047683716,-0.11999999731779099]},{"componentType":5125,"type":"SCALAR","bufferView":17,"count":132,"max":[23],"min":[0]},{"componentType":5126,"type":"VEC3","byteOffset":0,"bufferView":18,"count":24,"max":[0.2759999930858612,1.350000023841858,0.12999999523162842],"min":[-0.2759999930858612,1.0099999904632568,-0.12999999523162842]},{"componentType":5126,"type":"VEC3","byteOffset":0,"bufferView":19,"count":8,"max":[0.2639999985694885,1.037500023841858,0.13500000536441803],"min":[-0.2639999985694885,1.002500057220459,-0.13500000536441803]},{"componentType":5125,"type":"SCALAR","bufferView":20,"count":24,"max":[5],"min":[0]},{"componentType":5126,"type":"VEC3","byteOffset":0,"bufferView":21,"count":6,"max":[0.08500000089406967,1.2949999570846558,0.1899999976158142],"min":[-0.08500000089406967,1.125,0.07000000029802322]},{"componentType":5126,"count":6,"type":"VEC3","byteOffset":0,"bufferView":22,"max":[1.0,1.0,1.0],"min":[-1.0,-1.0,-1.0]},{"componentType":5126,"type":"VEC3","byteOffset":0,"bufferView":23,"count":8,"max":[0.12999999523162842,1.0824999809265137,0.15000000596046448],"min":[-0.12999999523162842,1.037500023841858,0.10999999940395355]},{"componentType":5126,"type":"VEC3","byteOffset":0,"bufferView":24,"count":6,"max":[0.054999999701976776,1.2549999952316284,-0.09000000357627869],"min":[-0.054999999701976776,1.1449999809265137,-0.17000000178813934]},{"componentType":5125,"type":"SCALAR","bufferView":25,"count":36,"max":[7],"min":[0]},{"componentType":5126,"type":"VEC3","byteOffset":0,"bufferView":26,"count":8,"max":[0.4440000057220459,1.375,0.11999999731779099],"min":[0.25200000405311584,1.225000023841858,-0.11999999731779099]},{"componentType":5126,"count":8,"type":"VEC3","byteOffset":0,"bufferView":27,"max":[0.6285861134529114,0.7154641151428223,0.5773502588272095],"min":[-0.6285861134529114,-0.5773502588272095,-0.7698349356651306]},{"componentType":5126,"type":"VEC3","byteOffset":0,"bufferView":28,"count":8,"max":[-0.25200000405311584,1.375,0.11999999731779099],"min":[-0.4440000057220459,1.225000023841858,-0.11999999731779099]},{"componentType":5126,"count":8,"type":"VEC3","byteOffset":0,"bufferView":29,"max":[0.6285861134529114,0.5773502588272095,0.7698349356651306],"min":[-0.6285861134529114,-0.7154641151428223,-0.5773502588272095]},{"componentType":5125,"type":"SCALAR","bufferView":30,"count":132,"max":[23],"min":[0]},{"componentType":5126,"type":"VEC3","byteOffset":0,"bufferView":31,"count":24,"max":[0.40299999713897705,1.2400000095367432,0.06499999761581421],"min":[0.2930000126361847,0.9599999785423279,-0.06499999761581421]},{"componentType":5126,"type":"VEC3","byteOffset":0,"bufferView":32,"count":24,"max":[-0.2930000126361847,1.2400000095367432,0.06499999761581421],"min":[-0.40299999713897705,0.9599999785423279,-0.06499999761581421]},{"componentType":5126,"type":"VEC3","byteOffset":0,"bufferView":33,"count":24,"max":[0.39800000190734863,0.9900000095367432,0.10000000149011612],"min":[0.2980000078678131,0.7300000190734863,-0.019999999552965164]},{"componentType":5126,"type":"VEC3","byteOffset":0,"bufferView":34,"count":24,"max":[-0.2980000078678131,0.9900000095367432,0.10000000149011612],"min":[-0.39800000190734863,0.7300000190734863,-0.019999999552965164]},{"componentType":5125,"type":"SCALAR","bufferView":35,"count":132,"max":[23],"min":[0]},{"componentType":5126,"type":"VEC3","byteOffset":0,"bufferView":36,"count":24,"max":[0.40299999713897705,0.7549999952316284,0.11999999731779099],"min":[0.2930000126361847,0.6449999809265137,0.0]},{"componentType":5126,"type":"VEC3","byteOffset":0,"bufferView":37,"count":24,"max":[-0.2930000126361847,0.7549999952316284,0.11999999731779099],"min":[-0.40299999713897705,0.6449999809265137,0.0]},{"componentType":5126,"type":"VEC3","byteOffset":0,"bufferView":38,"count":8,"max":[0.05999999865889549,1.4049999713897705,0.05999999865889549],"min":[-0.05999999865889549,1.3450000286102295,-0.05999999865889549]},{"componentType":5125,"type":"SCALAR","bufferView":39,"count":132,"max":[23],"min":[0]},{"componentType":5126,"type":"VEC3","byteOffset":0,"bufferView":40,"count":24,"max":[0.11999999731779099,1.5950000286102295,0.12999999523162842],"min":[-0.11999999731779099,1.375,-0.12999999523162842]},{"componentType":5126,"type":"VEC3","byteOffset":0,"bufferView":41,"count":8,"max":[0.10000000149011612,1.527500033378601,-0.11749999970197678],"min":[-0.10000000149011612,1.4524999856948853,-0.1525000035762787]},{"componentType":5126,"type":"VEC3","byteOffset":0,"bufferView":42,"count":24,"max":[0.25,1.399999976158142,0.17499999701976776],"min":[-0.25,1.2000000476837158,0.125]},{"componentType":5126,"type":"VEC3","byteOffset":0,"bufferView":43,"count":8,"max":[0.15000000596046448,1.1399999856948853,0.17499999701976776],"min":[-0.15000000596046448,1.100000023841858,0.125]},{"componentType":5125,"type":"SCALAR","bufferView":44,"count":132,"max":[23],"min":[0]},{"componentType":5126,"type":"VEC3","byteOffset":0,"bufferView":45,"count":24,"max":[0.4050000011920929,1.3450000286102295,0.14000000059604645],"min":[0.3149999976158142,1.2549999952316284,-0.14000000059604645]},{"componentType":5126,"type":"VEC3","byteOffset":0,"bufferView":46,"count":24,"max":[-0.3149999976158142,1.3450000286102295,0.14000000059604645],"min":[-0.4050000011920929,1.2549999952316284,-0.14000000059604645]}],"meshes":[{"name":"CHR_Runner_Rook_p0","extras":{"processed":true},"primitives":[{"attributes":{"POSITION":1,"NORMAL":2},"indices":0,"mode":4,"material":0}]},{"name":"CHR_Runner_Rook_p1","extras":{"processed":true},"primitives":[{"attributes":{"POSITION":3,"NORMAL":4},"indices":0,"mode":4,"material":0}]},{"name":"CHR_Runner_Rook_p2","extras":{"processed":true},"primitives":[{"attributes":{"POSITION":6,"NORMAL":2},"indices":5,"mode":4,"material":0}]},{"name":"CHR_Runner_Rook_p3","extras":{"processed":true},"primitives":[{"attributes":{"POSITION":7,"NORMAL":4},"indices":5,"mode":4,"material":0}]},{"name":"CHR_Runner_Rook_p4","extras":{"processed":true},"primitives":[{"attributes":{"POSITION":8,"NORMAL":2},"indices":5,"mode":4,"material":0}]},{"name":"CHR_Runner_Rook_p5","extras":{"processed":true},"primitives":[{"attributes":{"POSITION":9,"NORMAL":4},"indices":5,"mode":4,"material":0}]},{"name":"CHR_Runner_Rook_p6","extras":{"shape":"box","extents":[0.20400000000000001,0.035,0.18]},"primitives":[{"attributes":{"POSITION":11,"NORMAL":12},"indices":10,"mode":4,"material":1}]},{"name":"CHR_Runner_Rook_p7","extras":{"shape":"box","extents":[0.20400000000000001,0.035,0.18]},"primitives":[{"attributes":{"POSITION":13,"NORMAL":14},"indices":10,"mode":4,"material":1}]},{"name":"pelvis","extras":{"processed":true},"primitives":[{"attributes":{"POSITION":16,"NORMAL":2},"indices":15,"mode":4,"material":0}]},{"name":"chest","extras":{"processed":true},"primitives":[{"attributes":{"POSITION":18,"NORMAL":2},"indices":17,"mode":4,"material":0}]},{"name":"belt","extras":{"shape":"box","extents":[0.528,0.035,0.27]},"primitives":[{"attributes":{"POSITION":19,"NORMAL":12},"indices":10,"mode":4,"material":2}]},{"name":"back_core","extras":{"processed":true},"primitives":[{"attributes":{"POSITION":21,"NORMAL":22},"indices":20,"mode":4,"material":1}]},{"name":"back_bar","extras":{"shape":"box","extents":[0.26,0.045,0.04]},"primitives":[{"attributes":{"POSITION":23,"NORMAL":12},"indices":10,"mode":4,"material":1}]},{"name":"chest_emblem","extras":{"processed":true},"primitives":[{"attributes":{"POSITION":24,"NORMAL":22},"indices":20,"mode":4,"material":1}]},{"name":"CHR_Runner_Rook_p14","extras":{"processed":true},"primitives":[{"attributes":{"POSITION":26,"NORMAL":27},"indices":25,"mode":4,"material":2}]},{"name":"CHR_Runner_Rook_p15","extras":{"processed":true},"primitives":[{"attributes":{"POSITION":28,"NORMAL":29},"indices":25,"mode":4,"material":2}]},{"name":"CHR_Runner_Rook_p16","extras":{"processed":true},"primitives":[{"attributes":{"POSITION":31,"NORMAL":2},"indices":30,"mode":4,"material":0}]},{"name":"CHR_Runner_Rook_p17","extras":{"processed":true},"primitives":[{"attributes":{"POSITION":32,"NORMAL":4},"indices":30,"mode":4,"material":0}]},{"name":"CHR_Runner_Rook_p18","extras":{"processed":true},"primitives":[{"attributes":{"POSITION":33,"NORMAL":2},"indices":30,"mode":4,"material":0}]},{"name":"CHR_Runner_Rook_p19","extras":{"processed":true},"primitives":[{"attributes":{"POSITION":34,"NORMAL":4},"indices":30,"mode":4,"material":0}]},{"name":"CHR_Runner_Rook_p20","extras":{"processed":true},"primitives":[{"attributes":{"POSITION":36,"NORMAL":2},"indices":35,"mode":4,"material":1}]},{"name":"CHR_Runner_Rook_p21","extras":{"processed":true},"primitives":[{"attributes":{"POSITION":37,"NORMAL":4},"indices":35,"mode":4,"material":1}]},{"name":"neck","extras":{"shape":"box","extents":[0.12,0.06,0.12]},"primitives":[{"attributes":{"POSITION":38,"NORMAL":12},"indices":10,"mode":4,"material":2}]},{"name":"head","extras":{"processed":true},"primitives":[{"attributes":{"POSITION":40,"NORMAL":2},"indices":39,"mode":4,"material":0}]},{"name":"visor","extras":{"shape":"box","extents":[0.2,0.075,0.035]},"primitives":[{"attributes":{"POSITION":41,"NORMAL":12},"indices":10,"mode":4,"material":1}]},{"name":"backplate","extras":{"processed":true},"primitives":[{"attributes":{"POSITION":42,"NORMAL":2},"indices":17,"mode":4,"material":1}]},{"name":"back_bar_2","extras":{"shape":"box","extents":[0.3,0.04,0.05]},"primitives":[{"attributes":{"POSITION":43,"NORMAL":12},"indices":10,"mode":4,"material":1}]},{"name":"spike_r","extras":{"processed":true},"primitives":[{"attributes":{"POSITION":45,"NORMAL":2},"indices":44,"mode":4,"material":1}]},{"name":"spike_l","extras":{"processed":true},"primitives":[{"attributes":{"POSITION":46,"NORMAL":4},"indices":44,"mode":4,"material":1}]}],"materials":[{"pbrMetallicRoughness":{"baseColorFactor":[0.2196078431372549,0.23137254901960785,0.2980392156862745,1.0],"roughnessFactor":0.4,"metallicFactor":0.75},"emissiveFactor":[0.0,0.0,0.0],"name":"MAT_Metal_Steel","alphaMode":"OPAQUE","doubleSided":false},{"pbrMetallicRoughness":{"baseColorFactor":[1.0,0.1803921568627451,0.45098039215686275,1.0],"roughnessFactor":0.35,"metallicFactor":0.0},"emissiveFactor":[1.0,0.18,0.45],"name":"MAT_Neon_Magenta","alphaMode":"OPAQUE","doubleSided":false},{"pbrMetallicRoughness":{"baseColorFactor":[0.050980392156862744,0.0392156862745098,0.10980392156862745,1.0],"roughnessFactor":0.75,"metallicFactor":0.0},"emissiveFactor":[0.0,0.0,0.0],"name":"MAT_Dark_Chassis","alphaMode":"OPAQUE","doubleSided":false}],"nodes":[{"name":"world","children":[1,2,3,4,5,6,7,8,9,10,11,12,13,14,15,16,17,18,19,20,21,22,23,24,25,26,27,28,29]},{"name":"CHR_Runner_Rook_p0","mesh":0},{"name":"CHR_Runner_Rook_p1","mesh":1},{"name":"CHR_Runner_Rook_p2","mesh":2},{"name":"CHR_Runner_Rook_p3","mesh":3},{"name":"CHR_Runner_Rook_p4","mesh":4},{"name":"CHR_Runner_Rook_p5","mesh":5},{"name":"CHR_Runner_Rook_p6","mesh":6},{"name":"CHR_Runner_Rook_p7","mesh":7},{"name":"pelvis","mesh":8},{"name":"chest","mesh":9},{"name":"belt","mesh":10},{"name":"back_core","mesh":11},{"name":"back_bar","mesh":12},{"name":"chest_emblem","mesh":13},{"name":"CHR_Runner_Rook_p14","mesh":14},{"name":"CHR_Runner_Rook_p15","mesh":15},{"name":"CHR_Runner_Rook_p16","mesh":16},{"name":"CHR_Runner_Rook_p17","mesh":17},{"name":"CHR_Runner_Rook_p18","mesh":18},{"name":"CHR_Runner_Rook_p19","mesh":19},{"name":"CHR_Runner_Rook_p20","mesh":20},{"name":"CHR_Runner_Rook_p21","mesh":21},{"name":"neck","mesh":22},{"name":"head","mesh":23},{"name":"visor","mesh":24},{"name":"backplate","mesh":25},{"name":"back_bar_2","mesh":26},{"name":"spike_r","mesh":27},{"name":"spike_l","mesh":28}],"buffers":[{"uri":"gltf_buffer.bin","byteLength":11832}],"bufferViews":[{"buffer":0,"byteOffset":0,"byteLength":528},{"buffer":0,"byteOffset":528,"byteLength":288},{"buffer":0,"byteOffset":816,"byteLength":288},{"buffer":0,"byteOffset":1104,"byteLength":288},{"buffer":0,"byteOffset":1392,"byteLength":288},{"buffer":0,"byteOffset":1680,"byteLength":528},{"buffer":0,"byteOffset":2208,"byteLength":288},{"buffer":0,"byteOffset":2496,"byteLength":288},{"buffer":0,"byteOffset":2784,"byteLength":288},{"buffer":0,"byteOffset":3072,"byteLength":288},{"buffer":0,"byteOffset":3360,"byteLength":144},{"buffer":0,"byteOffset":3504,"byteLength":96},{"buffer":0,"byteOffset":3600,"byteLength":96},{"buffer":0,"byteOffset":3696,"byteLength":96},{"buffer":0,"byteOffset":3792,"byteLength":96},{"buffer":0,"byteOffset":3888,"byteLength":528},{"buffer":0,"byteOffset":4416,"byteLength":288},{"buffer":0,"byteOffset":4704,"byteLength":528},{"buffer":0,"byteOffset":5232,"byteLength":288},{"buffer":0,"byteOffset":5520,"byteLength":96},{"buffer":0,"byteOffset":5616,"byteLength":96},{"buffer":0,"byteOffset":5712,"byteLength":72},{"buffer":0,"byteOffset":5784,"byteLength":72},{"buffer":0,"byteOffset":5856,"byteLength":96},{"buffer":0,"byteOffset":5952,"byteLength":72},{"buffer":0,"byteOffset":6024,"byteLength":144},{"buffer":0,"byteOffset":6168,"byteLength":96},{"buffer":0,"byteOffset":6264,"byteLength":96},{"buffer":0,"byteOffset":6360,"byteLength":96},{"buffer":0,"byteOffset":6456,"byteLength":96},{"buffer":0,"byteOffset":6552,"byteLength":528},{"buffer":0,"byteOffset":7080,"byteLength":288},{"buffer":0,"byteOffset":7368,"byteLength":288},{"buffer":0,"byteOffset":7656,"byteLength":288},{"buffer":0,"byteOffset":7944,"byteLength":288},{"buffer":0,"byteOffset":8232,"byteLength":528},{"buffer":0,"byteOffset":8760,"byteLength":288},{"buffer":0,"byteOffset":9048,"byteLength":288},{"buffer":0,"byteOffset":9336,"byteLength":96},{"buffer":0,"byteOffset":9432,"byteLength":528},{"buffer":0,"byteOffset":9960,"byteLength":288},{"buffer":0,"byteOffset":10248,"byteLength":96},{"buffer":0,"byteOffset":10344,"byteLength":288},{"buffer":0,"byteOffset":10632,"byteLength":96},{"buffer":0,"byteOffset":10728,"byteLength":528},{"buffer":0,"byteOffset":11256,"byteLength":288},{"buffer":0,"byteOffset":11544,"byteLength":288}]}