{"scene":0,"scenes":[{"nodes":[0]}],"asset":{"version":"2.0","generator":"https://github.com/mikedh/trimesh"},"accessors":[{"componentType":5125,"type":"SCALAR","bufferView":0,"count":36,"max":[7],"min":[0]},{"componentType":5126,"type":"VEC3","byteOffset":0,"bufferView":1,"count":8,"max":[0.03999999910593033,0.009999999776482582,15.0],"min":[-0.03999999910593033,-0.009999999776482582,-15.0]},{"componentType":5126,"count":8,"type":"VEC3","byteOffset":0,"bufferView":2,"max":[0.5773502588272095,0.5773502588272095,0.5773502588272095],"min":[-0.5773502588272095,-0.5773502588272095,-0.5773502588272095]}],"meshes":[{"name":"strip","extras":{"shape":"box","extents":[0.08,0.02,30.0]},"primitives":[{"attributes":{"POSITION":1,"NORMAL":2},"indices":0,"mode":4,"material":0}]}],"materials":[{"pbrMetallicRoughness":{"baseColorFactor":[0.34901960784313724,0.25098039215686274,0.8509803921568627,1.0],"roughnessFactor":0.4,"metallicFactor":0.0},"emissiveFactor":[0.35,0.25,0.85],"name":"MAT_Neon_Violet","alphaMode":"OPAQUE","doubleSided":false}],"nodes":[{"name":"world","children":[1]},{"name":"strip","mesh":0}],"buffers":[{"uri":"gltf_buffer.bin","byteLength":336}],"bufferViews":[{"buffer":0,"byteOffset":0,"byteLength":144},{"buffer":0,"byteOffset":144,"byteLength":96},{"buffer":0,"byteOffset":240,"byteLength":96}]}