{"scene":0,"scenes":[{"nodes":[0]}],"asset":{"version":"2.0","generator":"https://github.com/mikedh/trimesh"},"accessors":[{"componentType":5125,"type":"SCALAR","bufferView":0,"count":36,"max":[7],"min":[0]},{"componentType":5126,"type":"VEC3","byteOffset":0,"bufferView":1,"count":8,"max":[4.5,0.10000000149011612,15.0],"min":[-4.5,-0.10000000149011612,-15.0]},{"componentType":5126,"type":"VEC2","byteOffset":0,"bufferView":5,"count":8,"max":[1.5,6.0],"min":[-1.5,-4.0]},{"componentType":5126,"count":8,"type":"VEC3","byteOffset":0,"bufferView":6,"max":[0.5773502588272095,0.5773502588272095,0.5773502588272095],"min":[-0.5773502588272095,-0.5773502588272095,-0.5773502588272095]},{"componentType":5126,"type":"VEC3","byteOffset":0,"bufferView":7,"count":8,"max":[-4.199999809265137,0.20000000298023224,15.0],"min":[-4.5,0.07999999821186066,-15.0]},{"componentType":5126,"type":"VEC3","byteOffset":0,"bufferView":8,"count":8,"max":[4.5,0.20000000298023224,15.0],"min":[4.199999809265137,0.07999999821186066,-15.0]}],"meshes":[{"name":"slab","extras":{"shape":"box","extents":[9.0,0.2,30.0]},"primitives":[{"attributes":{"POSITION":1,"TEXCOORD_0":2,"NORMAL":3},"indices":0,"mode":4,"material":0}]},{"name":"kerb_-1","extras":{"shape":"box","extents":[0.3,0.12,30.0]},"primitives":[{"attributes":{"POSITION":4,"NORMAL":3},"indices":0,"mode":4,"material":1}]},{"name":"kerb_1","extras":{"shape":"box","extents":[0.3,0.12,30.0]},"primitives":[{"attributes":{"POSITION":5,"NORMAL":3},"indices":0,"mode":4,"material":1}]}],"images":[{"bufferView":2,"mimeType":"image/png"},{"bufferView":3,"mimeType":"image/png"},{"bufferView":4,"mimeType":"image/png"}],"textures":[{"source":0},{"source":1},{"source":2}],"materials":[{"pbrMetallicRoughness":{"baseColorTexture":{"index":0},"baseColorFactor":[0.058823529411764705,0.058823529411764705,0.10196078431372549,1.0],"roughnessFactor":0.85,"metallicFactor":0.0,"metallicRoughnessTexture":{"index":2}},"emissiveFactor":[1.0,1.0,1.0],"name":"MAT_Road_Panel","alphaMode":"OPAQUE","doubleSided":false,"emissiveTexture":{"index":1}},{"pbrMetallicRoughness":{"baseColorFactor":[0.050980392156862744,0.0392156862745098,0.10980392156862745,1.0],"roughnessFactor":0.75,"metallicFactor":0.0},"emissiveFactor":[0.0,0.0,0.0],"name":"MAT_Dark_Chassis","alphaMode":"OPAQUE","doubleSided":false}],"nodes":[{"name":"world","children":[1,2,3]},{"name":"slab","mesh":0},{"name":"kerb_-1","mesh":1},{"name":"kerb_1","mesh":2}],"buffers":[{"uri":"gltf_buffer.bin","byteLength":507656}],"bufferViews":[{"buffer":0,"byteOffset":0,"byteLength":144},{"buffer":0,"byteOffset":144,"byteLength":96},{"buffer":0,"byteOffset":240,"byteLength":259480},{"buffer":0,"byteOffset":259720,"byteLength":4348},{"buffer":0,"byteOffset":264068,"byteLength":243236},{"buffer":0,"byteOffset":507304,"byteLength":64},{"buffer":0,"byteOffset":507368,"byteLength":96},{"buffer":0,"byteOffset":507464,"byteLength":96},{"buffer":0,"byteOffset":507560,"byteLength":96}]}